<?xml version="1.0" encoding="UTF-8" standalone="no"?>
<!-- Created with Inkscape (http://www.inkscape.org/) -->

<svg
   xmlns:dc="http://purl.org/dc/elements/1.1/"
   xmlns:cc="http://creativecommons.org/ns#"
   xmlns:rdf="http://www.w3.org/1999/02/22-rdf-syntax-ns#"
   xmlns:svg="http://www.w3.org/2000/svg"
   xmlns="http://www.w3.org/2000/svg"
   xmlns:sodipodi="http://sodipodi.sourceforge.net/DTD/sodipodi-0.dtd"
   xmlns:inkscape="http://www.inkscape.org/namespaces/inkscape"
   width="197.53342mm"
   height="155.39484mm"
   viewBox="0 0 699.92156 550.61162"
   id="svg4167"
   version="1.1"
   inkscape:version="0.91 r13725"
   sodipodi:docname="network.svg">
  <defs
     id="defs4169" />
  <sodipodi:namedview
     id="base"
     pagecolor="#ffffff"
     bordercolor="#666666"
     borderopacity="1.0"
     inkscape:pageopacity="0.0"
     inkscape:pageshadow="2"
     inkscape:zoom="0.35"
     inkscape:cx="-607.56534"
     inkscape:cy="66.152211"
     inkscape:document-units="px"
     inkscape:current-layer="layer1"
     showgrid="false"
     showguides="true"
     inkscape:guide-bbox="true"
     fit-margin-top="0"
     fit-margin-left="0"
     fit-margin-right="0"
     fit-margin-bottom="0"
     inkscape:window-width="1914"
     inkscape:window-height="1040"
     inkscape:window-x="0"
     inkscape:window-y="18"
     inkscape:window-maximized="0">
    <sodipodi:guide
       position="264.00232,625.12633"
       orientation="0,1"
       id="guide4805" />
    <sodipodi:guide
       position="74.975516,721.7954"
       orientation="1,0"
       id="guide4807" />
    <sodipodi:guide
       position="625.07373,710.1263"
       orientation="1,0"
       id="guide4809" />
    <sodipodi:guide
       position="349.71659,360.84062"
       orientation="1,0"
       id="guide4811" />
    <sodipodi:guide
       position="50.731856,465.97424"
       orientation="0,1"
       id="guide4813" />
    <sodipodi:guide
       position="-465.45609,85.146751"
       orientation="0,1"
       id="guide4815" />
    <sodipodi:guide
       position="-352.31901,-74.45735"
       orientation="0,1"
       id="guide4817" />
  </sodipodi:namedview>
  <metadata
     id="metadata4172">
    <rdf:RDF>
      <cc:Work
         rdf:about="">
        <dc:format>image/svg+xml</dc:format>
        <dc:type
           rdf:resource="http://purl.org/dc/dcmitype/StillImage" />
        <dc:title></dc:title>
      </cc:Work>
    </rdf:RDF>
  </metadata>
  <g
     inkscape:label="Layer 1"
     inkscape:groupmode="layer"
     id="layer1"
     transform="translate(-50.283402,-186.87692)">
    <path
       inkscape:connector-curvature="0"
       style="fill:#91dc5a"
       d="m 322.19833,242.73147 c 0,-30.80379 -25.0507,-55.85455 -55.8545,-55.85455 -30.8038,0 -55.8546,25.05076 -55.8546,55.85455 0,30.80378 25.0508,55.85455 55.8546,55.85455 31.90209,0.0434 55.42337,-26.18339 55.8545,-55.85455 z m -93.0909,0 c 0,-20.53586 16.7005,-37.23637 37.2364,-37.23637 20.5358,0 37.2363,16.70051 37.2363,37.23637 0,20.53585 -16.7005,37.23636 -37.2363,37.23636 -20.5359,0 -37.2364,-16.70051 -37.2364,-37.23636 z"
       id="path3"
       sodipodi:nodetypes="cssccsssss" />
    <path
       inkscape:connector-curvature="0"
       style="fill:#91dc5a"
       d="m 591.0418,242.87688 c 0,-30.80378 -25.0507,-55.85455 -55.8545,-55.85455 -30.8038,0 -55.8546,25.05077 -55.8546,55.85455 0,30.80378 25.0508,55.85455 55.8546,55.85455 31.90209,0.0434 55.42337,-26.18339 55.8545,-55.85455 z m -93.0909,0 c 0,-20.53585 16.7005,-37.23636 37.2364,-37.23636 20.5358,0 37.2363,16.70051 37.2363,37.23636 0,20.53585 -16.7005,37.23636 -37.2363,37.23636 -20.5359,0 -37.2364,-16.70051 -37.2364,-37.23636 z"
       id="path3-3"
       sodipodi:nodetypes="cssccsssss" />
    <path
       inkscape:connector-curvature="0"
       style="fill:#91dc5a"
       d="m 321.29921,681.56216 c 0,-30.80378 -25.0507,-55.85455 -55.8545,-55.85455 -30.8038,0 -55.8546,25.05077 -55.8546,55.85455 0,30.80378 25.0508,55.85455 55.8546,55.85455 31.90209,0.0434 55.42337,-26.18339 55.8545,-55.85455 z m -93.0909,0 c 0,-20.53585 16.7005,-37.23636 37.2364,-37.23636 20.5358,0 37.2363,16.70051 37.2363,37.23636 0,20.53585 -16.7005,37.23636 -37.2363,37.23636 -20.5359,0 -37.2364,-16.70051 -37.2364,-37.23636 z"
       id="path3-3-6"
       sodipodi:nodetypes="cssccsssss" />
    <path
       inkscape:connector-curvature="0"
       style="fill:#91dc5a"
       d="m 161.99249,460.50995 c 0,-30.80378 -25.0507,-55.85455 -55.8545,-55.85455 -30.803798,0 -55.854588,25.05077 -55.854588,55.85455 0,30.80378 25.05079,55.85455 55.854588,55.85455 31.90209,0.0434 55.42337,-26.18339 55.8545,-55.85455 z m -93.090898,0 c 0,-20.53585 16.7005,-37.23636 37.236398,-37.23636 20.5358,0 37.2363,16.70051 37.2363,37.23636 0,20.53585 -16.7005,37.23636 -37.2363,37.23636 -20.535898,0 -37.236398,-16.70051 -37.236398,-37.23636 z"
       id="path3-3-6-7"
       sodipodi:nodetypes="cssccsssss" />
    <path
       inkscape:connector-curvature="0"
       style="fill:#91dc5a"
       d="m 750.20496,461.93852 c 0,-30.80378 -25.0507,-55.85455 -55.8545,-55.85455 -30.8038,0 -55.85459,25.05077 -55.85459,55.85455 0,30.80378 25.05079,55.85455 55.85459,55.85455 31.90209,0.0434 55.42337,-26.18339 55.8545,-55.85455 z m -93.0909,0 c 0,-20.53585 16.7005,-37.23636 37.2364,-37.23636 20.5358,0 37.2363,16.70051 37.2363,37.23636 0,20.53585 -16.7005,37.23636 -37.2363,37.23636 -20.5359,0 -37.2364,-16.70051 -37.2364,-37.23636 z"
       id="path3-3-6-7-5"
       sodipodi:nodetypes="cssccsssss" />
    <path
       inkscape:connector-curvature="0"
       style="fill:#91dc5a"
       d="m 590.86339,681.63394 c 0,-30.80378 -25.0507,-55.85455 -55.8545,-55.85455 -30.8038,0 -55.85459,25.05077 -55.85459,55.85455 0,30.80378 25.05079,55.85455 55.85459,55.85455 31.90209,0.0434 55.42337,-26.18339 55.8545,-55.85455 z m -93.0909,0 c 0,-20.53585 16.7005,-37.23636 37.2364,-37.23636 20.5358,0 37.2363,16.70051 37.2363,37.23636 0,20.53585 -16.7005,37.23636 -37.2363,37.23636 -20.5359,0 -37.2364,-16.70051 -37.2364,-37.23636 z"
       id="path3-3-6-7-5-3"
       sodipodi:nodetypes="cssccsssss" />
    <rect
       style="fill:#91dc5a;fill-opacity:1;stroke:none;stroke-width:4;stroke-linecap:butt;stroke-linejoin:bevel;stroke-miterlimit:4;stroke-dasharray:none;stroke-opacity:1"
       id="rect4857-1-2-7-6-1-8"
       width="181.35777"
       height="18.986444"
       x="-493.17218"
       y="-250.44044"
       transform="matrix(-0.99999979,6.4055069e-4,0.00266783,-0.99999644,0,0)" />
    <rect
       style="fill:#91dc5a;fill-opacity:1;stroke:none;stroke-width:4;stroke-linecap:butt;stroke-linejoin:bevel;stroke-miterlimit:4;stroke-dasharray:none;stroke-opacity:1"
       id="rect4857-1-2-7-6-1-8-2"
       width="181.35777"
       height="18.986444"
       x="-493.08319"
       y="-691.21136"
       transform="matrix(-0.99999979,6.4055069e-4,0.00266783,-0.99999644,0,0)" />
    <rect
       style="fill:#91dc5a;fill-opacity:1;stroke:none;stroke-width:4;stroke-linecap:butt;stroke-linejoin:bevel;stroke-miterlimit:4;stroke-dasharray:none;stroke-opacity:1"
       id="rect4857-1-2-7-6-1-8-2-0"
       width="181.35777"
       height="18.986444"
       x="-730.07062"
       y="295.16797"
       transform="matrix(-0.56954931,-0.82195717,0.82383695,-0.56682685,0,0)" />
    <rect
       style="fill:#91dc5a;fill-opacity:1;stroke:none;stroke-width:4;stroke-linecap:butt;stroke-linejoin:bevel;stroke-miterlimit:4;stroke-dasharray:none;stroke-opacity:1"
       id="rect4857-1-2-7-6-1-8-2-0-2"
       width="181.35777"
       height="18.986444"
       x="-664.70746"
       y="-188.11719"
       transform="matrix(-0.56954931,-0.82195717,0.82383695,-0.56682685,0,0)" />
    <rect
       style="fill:#91dc5a;fill-opacity:1;stroke:none;stroke-width:4;stroke-linecap:butt;stroke-linejoin:bevel;stroke-miterlimit:4;stroke-dasharray:none;stroke-opacity:1"
       id="rect4857-1-2-7-6-1-8-2-0-2-3"
       width="181.35777"
       height="18.986444"
       x="-256.00858"
       y="348.9014"
       transform="matrix(0.60681664,-0.79484185,0.79282992,0.60944296,0,0)" />
    <rect
       style="fill:#91dc5a;fill-opacity:1;stroke:none;stroke-width:4;stroke-linecap:butt;stroke-linejoin:bevel;stroke-miterlimit:4;stroke-dasharray:none;stroke-opacity:1"
       id="rect4857-1-2-7-6-1-8-2-0-2-3-7"
       width="181.35777"
       height="18.986444"
       x="-168.46658"
       y="831.03986"
       transform="matrix(0.60681664,-0.79484185,0.79282992,0.60944296,0,0)" />
    <rect
       style="fill:#91dc5a;fill-opacity:1;stroke:none;stroke-width:4;stroke-linecap:butt;stroke-linejoin:bevel;stroke-miterlimit:4;stroke-dasharray:none;stroke-opacity:1"
       id="rect4857-1-2-7-6-1-8-2-0-2-3-7-5"
       width="402.35095"
       height="20.539236"
       x="-791.3681"
       y="-85.674286"
       transform="matrix(-0.87777981,-0.4790643,0.4819657,-0.87619008,0,0)" />
    <rect
       style="fill:#91dc5a;fill-opacity:1;stroke:none;stroke-width:4;stroke-linecap:butt;stroke-linejoin:bevel;stroke-miterlimit:4;stroke-dasharray:none;stroke-opacity:1"
       id="rect4857-1-2-7-6-1-8-2-0-2-3-7-5-9"
       width="402.35095"
       height="20.539236"
       x="-391.55939"
       y="-734.14569"
       transform="matrix(-0.90271561,0.43023776,-0.42724888,-0.90413406,0,0)" />
    <rect
       style="fill:#91dc5a;fill-opacity:1;stroke:none;stroke-width:4;stroke-linecap:butt;stroke-linejoin:bevel;stroke-miterlimit:4;stroke-dasharray:none;stroke-opacity:1"
       id="rect4857-1-2-7-6-1-8-2-0-2-3-7-5-9-2"
       width="402.35095"
       height="20.539236"
       x="-329.70001"
       y="-469.71585"
       transform="matrix(-0.89133098,0.45335315,-0.45040181,-0.89282597,0,0)" />
    <rect
       style="fill:#91dc5a;fill-opacity:1;stroke:none;stroke-width:4;stroke-linecap:butt;stroke-linejoin:bevel;stroke-miterlimit:4;stroke-dasharray:none;stroke-opacity:1"
       id="rect4857-1-2-7-6-1-8-2-0-2-3-7-5-8"
       width="402.35095"
       height="20.539236"
       x="-746.00391"
       y="-377.00784"
       transform="matrix(-0.89330094,-0.44945905,0.45241196,-0.89180907,0,0)" />
    <rect
       style="fill:#91dc5a;fill-opacity:1;stroke:none;stroke-width:4;stroke-linecap:butt;stroke-linejoin:bevel;stroke-miterlimit:4;stroke-dasharray:none;stroke-opacity:1"
       id="rect4857-1-2-7-6-1-8-2-0-2-3-7-5-97"
       width="421.45435"
       height="22.155329"
       x="-814.12177"
       y="94.106537"
       transform="matrix(-0.52103778,-0.85353361,0.85525273,-0.51821112,0,0)" />
    <rect
       style="fill:#91dc5a;fill-opacity:1;stroke:none;stroke-width:4;stroke-linecap:butt;stroke-linejoin:bevel;stroke-miterlimit:4;stroke-dasharray:none;stroke-opacity:1"
       id="rect4857-1-2-7-6-1-8-2-0-2-3-7-5-97-3"
       width="421.45435"
       height="22.155329"
       x="-391.83011"
       y="570.69305"
       transform="matrix(0.52048121,-0.85387312,0.8521465,0.52330329,0,0)" />
    <rect
       style="fill:#91dc5a;fill-opacity:1;stroke:none;stroke-width:4;stroke-linecap:butt;stroke-linejoin:bevel;stroke-miterlimit:4;stroke-dasharray:none;stroke-opacity:1"
       id="rect4857-1-2-7-6-1-8-2-0-2-3-7-5-97-6"
       width="498.5947"
       height="22.155331"
       x="-653.4502"
       y="-472.64761"
       transform="matrix(-0.99999936,-0.00113446,0.00376063,-0.99999293,0,0)" />
    <rect
       style="fill:#91dc5a;fill-opacity:1;stroke:none;stroke-width:4;stroke-linecap:butt;stroke-linejoin:bevel;stroke-miterlimit:4;stroke-dasharray:none;stroke-opacity:1"
       id="rect4857-1-2-7-6-1-8-2-0-2-3-7-5-97-6-1"
       width="351.47656"
       height="22.155252"
       x="-634.82275"
       y="526.87067"
       transform="matrix(0.00160931,-0.99999871,0.99999649,0.00265101,0,0)" />
    <rect
       style="fill:#91dc5a;fill-opacity:1;stroke:none;stroke-width:4;stroke-linecap:butt;stroke-linejoin:bevel;stroke-miterlimit:4;stroke-dasharray:none;stroke-opacity:1"
       id="rect4857-1-2-7-6-1-8-2-0-2-3-7-5-97-6-1-2"
       width="351.47656"
       height="22.155252"
       x="-636.26416"
       y="252.5863"
       transform="matrix(0.00160931,-0.99999871,0.99999649,0.00265101,0,0)" />
  </g>
</svg>
