<?xml version="1.0" encoding="UTF-8" standalone="no"?>
<!-- Created with Inkscape (http://www.inkscape.org/) -->

<svg
   xmlns:dc="http://purl.org/dc/elements/1.1/"
   xmlns:cc="http://creativecommons.org/ns#"
   xmlns:rdf="http://www.w3.org/1999/02/22-rdf-syntax-ns#"
   xmlns:svg="http://www.w3.org/2000/svg"
   xmlns="http://www.w3.org/2000/svg"
   xmlns:sodipodi="http://sodipodi.sourceforge.net/DTD/sodipodi-0.dtd"
   xmlns:inkscape="http://www.inkscape.org/namespaces/inkscape"
   width="448.57407mm"
   height="303.52594mm"
   version="1.1"
   viewBox="0 0 448.57408 303.52593"
   id="svg2"
   inkscape:version="0.91 r13725"
   sodipodi:docname="timeline.de.svg">
  <sodipodi:namedview
     pagecolor="#ffffff"
     bordercolor="#666666"
     borderopacity="1"
     objecttolerance="10"
     gridtolerance="10"
     guidetolerance="10"
     inkscape:pageopacity="0"
     inkscape:pageshadow="2"
     inkscape:window-width="1914"
     inkscape:window-height="1040"
     id="namedview1031"
     showgrid="false"
     inkscape:zoom="0.62225397"
     inkscape:cx="561.33988"
     inkscape:cy="495.97507"
     inkscape:window-x="0"
     inkscape:window-y="18"
     inkscape:window-maximized="0"
     inkscape:current-layer="svg2"
     fit-margin-top="0"
     fit-margin-left="0"
     fit-margin-right="0"
     fit-margin-bottom="0" />
  <defs
     id="defs4">
    <marker
       id="Arrow1Lend-9"
       overflow="visible"
       orient="auto"
       style="overflow:visible">
      <path
         transform="matrix(-0.8,0,0,-0.8,-10,0)"
         d="M 0,0 5,-5 -12.5,0 5,5 Z"
         id="path7"
         inkscape:connector-curvature="0"
         style="fill-rule:evenodd;stroke:#000000;stroke-width:1pt" />
    </marker>
    <marker
       id="Arrow1Lend-2-2"
       overflow="visible"
       orient="auto"
       style="overflow:visible">
      <path
         transform="matrix(-0.8,0,0,-0.8,-10,0)"
         d="M 0,0 5,-5 -12.5,0 5,5 Z"
         id="path10"
         inkscape:connector-curvature="0"
         style="fill-rule:evenodd;stroke:#000000;stroke-width:1pt" />
    </marker>
    <filter
       id="filter6497-2"
       x="-0.00086905999"
       y="-0.001938"
       width="1.0017"
       height="1.0039001"
       style="color-interpolation-filters:sRGB">
      <feGaussianBlur
         stdDeviation="0.23571689"
         id="feGaussianBlur13" />
    </filter>
    <clipPath
       id="clipPath4956">
      <rect
         x="24.996"
         y="64.259003"
         width="411.48001"
         height="210.89999"
         style="fill:#ac9d93;stroke:#ffffff;stroke-width:0.66813999;stroke-linejoin:bevel;paint-order:stroke fill markers"
         id="rect16" />
    </clipPath>
    <clipPath
       id="clipPath4966">
      <rect
         x="306.70001"
         y="-14.249"
         width="141.74001"
         height="64.033997"
         style="fill:#ac9d93;paint-order:stroke fill markers"
         id="rect19" />
    </clipPath>
  </defs>
  <metadata
     id="metadata21">
    <rdf:RDF>
      <cc:Work
         rdf:about="">
        <dc:format>image/svg+xml</dc:format>
        <dc:type
           rdf:resource="http://purl.org/dc/dcmitype/StillImage" />
        <dc:title></dc:title>
      </cc:Work>
    </rdf:RDF>
  </metadata>
  <g
     transform="translate(-5.1884801,24.735159)"
     id="g23"
     style="fill:none;stroke:#000000">
    <path
       d="m 16.381,267.11 436.15,0"
       id="path25"
       inkscape:connector-curvature="0"
       style="stroke-width:0.67666px;marker-end:url(#Arrow1Lend-9)" />
    <path
       d="m 16.381,267.11 0,-290.9"
       id="path27"
       inkscape:connector-curvature="0"
       style="stroke-width:0.51932001px;marker-end:url(#Arrow1Lend-2-2)" />
  </g>
  <g
     transform="translate(-5.1884801,24.735159)"
     display="none"
     id="g29"
     style="display:none;fill:none;stroke-opacity:0.21175998">
    <path
       transform="matrix(1.7863,0,0,0.82296,-115.27,35.015)"
       d="m 155.24,169.41 16.262,28.166 -16.262,0 -16.262,0 8.1309,-14.083 z"
       display="inline"
       id="path31"
       inkscape:connector-curvature="0"
       style="display:inline;opacity:0.75;stroke:#008a00;stroke-width:0.26475" />
    <path
       transform="matrix(0.26458,0,0,0.26458,9.0511,197.18)"
       d="m 26.409,285.97 c 16.945,-3.495 38.083,-8.052 46.972,-10.126 114.86,-26.804 202.12,-69.799 296.61,-146.13 37.986,-30.688 88.326,-78.479 127.25,-120.81 l 7.6635,-8.3338 73.476,0 c 44.717,0 73.344,0.36667 73.14,0.9368 -0.18519,0.51524 -7.7152,8.8342 -16.733,18.487 -43.434,46.489 -98.149,91.239 -154.55,126.4 -133.27,83.085 -291.11,132.93 -459.39,145.08 -28.257,2.0398 -27.533,1.3228 5.5558,-5.502 z"
       display="inline"
       id="path33"
       inkscape:connector-curvature="0"
       style="display:inline;opacity:0.75;stroke:#001100;stroke-width:1.22549999;filter:url(#filter6497-2)" />
  </g>
  <g
     transform="translate(-5.1884801,24.735159)"
     display="none"
     id="g35"
     style="display:none">
    <rect
       x="129.72"
       y="239.52"
       width="0"
       height="0.051529001"
       ry="9.0752001e-05"
       style="fill:#447821;paint-order:stroke fill markers"
       id="rect37" />
    <g
       transform="translate(57.054,121.29)"
       id="g39">
      <path
         transform="matrix(1.7863,0,0,0.82296,-172.32,-86.275)"
         d="m 155.24,169.41 16.262,28.166 -16.262,0 -16.262,0 8.1309,-14.083 z"
         display="inline"
         id="path41"
         inkscape:connector-curvature="0"
         style="display:inline;opacity:0.75;fill:none;stroke:#008a00;stroke-width:0.082478;stroke-opacity:0.21175998" />
      <path
         transform="matrix(0.26458,0,0,0.26458,-48.003,52.925)"
         d="m 26.409,372.78 c 16.945,-3.495 38.083,-8.052 46.972,-10.126 114.86,-26.804 202.12,-69.799 296.61,-146.13 37.986,-30.688 88.326,-78.479 127.25,-120.81 l 7.6635,-8.3338 73.476,0 c 44.717,0 73.344,0.36667 73.14,0.9368 -0.18519,0.51524 -7.7152,8.8342 -16.733,18.487 -43.434,46.489 -98.149,91.239 -154.55,126.4 -133.27,83.085 -291.11,132.93 -459.39,145.08 -28.257,2.0398 -27.533,1.3228 5.5558,-5.502 z"
         display="inline"
         id="path43"
         inkscape:connector-curvature="0"
         style="display:inline;opacity:0.75;fill:none;stroke:#001100;stroke-width:0.37795001;stroke-opacity:0.21175998" />
      <rect
         x="87.459"
         y="75.857002"
         width="35.271999"
         height="0.37823999"
         style="fill:#ffffff;stroke:#ffffff;stroke-width:2.06500006;stroke-linejoin:bevel;paint-order:stroke fill markers"
         id="rect45" />
      <g
         id="g47"
         style="fill:#ff2a2a;stroke-linejoin:bevel">
        <path
           transform="scale(0.26458,0.26458)"
           d="m -175.61,578.12 c 0.12267,-0.37327 5.023,-1.6549 12.167,-3.1822 6.5787,-1.4065 21.074,-4.4992 32.211,-6.8728 64.309,-13.705 113.52,-29.356 162.5,-51.681 65.506,-29.858 130.78,-73.996 195,-131.85 24.252,-21.85 65.823,-62.704 86.019,-84.535 9.5421,-10.315 10.302,-11.016 12.204,-11.25 2.5454,-0.31383 2.986,-1.5 0.5572,-1.5 -0.94625,0 -1.8595,0.225 -2.0295,0.5 -0.37987,0.61465 -34.25,0.69686 -34.25,0.0831 0,-0.22927 24.319,-19.822 54.043,-43.539 50.778,-40.517 54.097,-43.073 54.937,-42.312 0.492,0.44528 1.0915,0.74396 1.3322,0.66373 0.2407,-0.0802 0.4376,-7.3e-4 0.4376,0.17665 0,0.76256 1.9964,2.4399 2.6194,2.2009 0.3754,-0.14405 0.56085,-0.065 0.41205,0.17571 -0.3556,0.57538 0.931,1.6257 1.7682,1.4435 0.3602,-0.0784 0.66855,0.0825 0.6853,0.35745 0.0602,0.99076 0.85675,1.7738 1.6666,1.6383 0.4543,-0.076 0.83455,0.0867 0.84495,0.36174 0.037,0.97818 0.84135,1.7744 1.655,1.6383 0.4543,-0.076 0.83455,0.0867 0.84495,0.36174 0.037,0.97818 0.84135,1.7744 1.655,1.6383 0.4543,-0.076 0.83455,0.0867 0.84495,0.36174 0.037,0.97818 0.84135,1.7744 1.655,1.6383 0.4543,-0.076 0.83455,0.0867 0.84495,0.36174 0.037,0.97818 0.84135,1.7744 1.655,1.6383 0.4543,-0.076 0.83455,0.0867 0.84495,0.36174 0.037,0.97818 0.84135,1.7744 1.655,1.6383 0.4543,-0.076 0.83455,0.0867 0.84495,0.36174 0.037,0.97818 0.84135,1.7744 1.655,1.6383 0.4543,-0.076 0.83455,0.0867 0.84495,0.36174 0.037,0.97818 0.84135,1.7744 1.655,1.6383 0.4543,-0.076 0.83455,0.0867 0.84495,0.36174 0.037,0.97818 0.84135,1.7744 1.655,1.6383 0.4543,-0.076 0.83455,0.0867 0.84495,0.36174 0.037,0.97818 0.84135,1.7744 1.655,1.6383 0.4543,-0.076 0.83455,0.0867 0.84495,0.36174 0.037,0.97818 0.84135,1.7744 1.655,1.6383 0.4543,-0.076 0.83455,0.0867 0.84495,0.36174 0.037,0.97818 0.84135,1.7744 1.655,1.6383 0.4543,-0.076 0.83455,0.0867 0.84495,0.36174 0.0375,0.99901 0.87165,1.8117 1.5801,1.5398 0.39895,-0.1531 0.6065,-0.086 0.4612,0.14909 -0.40565,0.65637 1.5642,2.2116 2.258,1.7828 0.35995,-0.22247 0.47985,-0.16763 0.2933,0.1342 -0.44245,0.71587 1.462,2.3261 2.2067,1.8658 0.35995,-0.22247 0.47985,-0.16763 0.2933,0.1342 -0.44245,0.71587 1.462,2.3261 2.2067,1.8658 0.36475,-0.22544 0.4798,-0.16758 0.287,0.14437 -0.39575,0.64032 0.8204,1.7216 1.7169,1.5264 0.3602,-0.0784 0.66855,0.0825 0.6853,0.35745 0.0568,0.93479 0.8382,1.777 1.52,1.6383 0.37375,-0.076 0.7103,0.0867 0.74795,0.36174 0.1304,0.95294 1.6872,2.284 2.3666,2.0234 0.3754,-0.14405 0.56365,-0.0696 0.41835,0.16554 -0.40565,0.65637 1.5642,2.2116 2.258,1.7828 0.36475,-0.22544 0.4798,-0.16758 0.287,0.14437 -0.39575,0.64032 0.8204,1.7216 1.7169,1.5264 0.3602,-0.0784 0.66855,0.0825 0.6853,0.35745 0.0602,0.99076 0.85675,1.7738 1.6666,1.6383 0.4543,-0.076 0.83455,0.0867 0.84495,0.36174 0.037,0.97818 0.84135,1.7744 1.655,1.6383 0.4543,-0.076 0.83455,0.0867 0.84495,0.36174 0.037,0.97818 0.84135,1.7744 1.655,1.6383 0.4543,-0.076 0.83455,0.0867 0.84495,0.36174 0.037,0.97818 0.84135,1.7744 1.655,1.6383 0.4543,-0.076 0.83455,0.0867 0.84495,0.36174 0.037,0.97818 0.84135,1.7744 1.655,1.6383 0.4543,-0.076 0.83455,0.0867 0.84495,0.36174 0.037,0.97818 0.84135,1.7744 1.655,1.6383 0.4543,-0.076 0.83455,0.0867 0.84495,0.36174 0.037,0.97818 0.84135,1.7744 1.655,1.6383 0.4543,-0.076 0.83455,0.0867 0.84495,0.36174 0.037,0.97818 0.84135,1.7744 1.655,1.6383 0.4543,-0.076 0.83455,0.0867 0.84495,0.36174 0.037,0.97818 0.84135,1.7744 1.655,1.6383 0.4543,-0.076 0.83455,0.0867 0.84495,0.36174 0.037,0.97818 0.84135,1.7744 1.655,1.6383 0.4543,-0.076 0.83455,0.0867 0.84495,0.36174 0.037,0.97818 0.84135,1.7744 1.655,1.6383 0.4543,-0.076 0.83455,0.0867 0.84495,0.36174 0.037,0.97818 0.84135,1.7744 1.655,1.6383 0.4543,-0.076 0.83455,0.0867 0.84495,0.36174 0.0375,0.999 0.87165,1.8117 1.5801,1.5398 0.39895,-0.1531 0.6065,-0.086 0.4612,0.14909 -0.40565,0.65637 1.5642,2.2116 2.258,1.7828 0.35995,-0.22248 0.47985,-0.16763 0.2933,0.13419 -0.44245,0.71588 1.462,2.3261 2.2067,1.8658 0.37475,-0.2316 0.47975,-0.16747 0.27315,0.16681 -0.4055,0.65613 1.6387,2.1967 2.3398,1.7634 0.27265,-0.16852 0.34475,-0.062 0.16015,0.23664 -0.4055,0.65613 1.6387,2.1967 2.3398,1.7634 0.27265,-0.16852 0.34475,-0.062 0.16015,0.23664 -0.4055,0.65613 1.6387,2.1967 2.3398,1.7634 0.27265,-0.16852 0.3538,-0.0767 0.1803,0.20402 -0.44245,0.71588 1.462,2.3261 2.2067,1.8658 0.37475,-0.2316 0.47975,-0.16747 0.27315,0.16681 -0.1846,0.29867 0.1744,0.90489 0.79775,1.3472 1.0486,0.74403 -0.2976,0.79843 -18.019,0.72817 -10.534,-0.0417 -19.29,0.0618 -19.458,0.2301 -0.1683,0.16832 0.2207,0.30604 0.86445,0.30604 l 1.1705,0 -1.1396,1.213 c -0.62675,0.66714 -1.0059,1.4292 -0.84265,1.6934 0.3162,0.51163 -0.86625,1.7529 -1.2778,1.3413 -0.38545,-0.38546 -9.5105,9.6922 -9.2126,10.174 0.1471,0.23799 -0.28815,0.95463 -0.96715,1.5925 -0.67905,0.63791 -1.2346,1.0272 -1.2346,0.865 0,-0.38087 -34.924,34.565 -35.002,35.024 -0.13285,0.783 -2.1466,2.5082 -2.6862,2.3012 -0.66745,-0.25613 -5.6908,4.6506 -5.3121,5.1888 0.1375,0.19539 -0.0986,0.35555 -0.5246,0.35591 -0.861,5e-4 -8.1332,6.2596 -7.7353,6.6574 0.43295,0.43298 -0.78245,1.5456 -1.4208,1.3007 -0.5757,-0.22092 -3.3306,2.2329 -3.4931,3.1113 -0.042,0.22668 -0.30555,0.41646 -0.58585,0.42173 -0.6936,0.0131 -5.8089,4.3577 -5.4974,4.6692 0.43575,0.43572 -0.7912,1.5405 -1.436,1.2931 -0.5957,-0.2286 -2.0625,1.0188 -2.3962,2.0378 -0.0883,0.26973 -0.39055,0.49473 -0.6715,0.5 -0.8492,0.0159 -5.2156,3.8116 -5.0984,4.4319 0.0601,0.31773 -0.20015,0.51206 -0.57835,0.43183 -0.90615,-0.19222 -2.627,1.3867 -2.2234,2.0399 0.18125,0.29327 0.0687,0.35792 -0.26455,0.15196 -0.68975,-0.42627 -5.0931,3.0333 -4.9338,3.8763 0.0601,0.31773 -0.26755,0.51548 -0.72805,0.43943 -0.8196,-0.13534 -1.6174,0.6436 -1.6778,1.6383 -0.017,0.275 -0.31185,0.44027 -0.6559,0.36726 -0.84285,-0.17886 -4.0756,2.3289 -3.9383,3.0551 0.0601,0.31772 -0.1957,0.51354 -0.5684,0.43514 -0.9169,-0.19288 -2.1393,0.87974 -1.7396,1.5264 0.186,0.30097 0.08,0.37118 -0.2513,0.16642 -0.7227,-0.44665 -4.6619,2.665 -4.2394,3.3487 0.1818,0.29418 0.062,0.3507 -0.28675,0.1352 -0.7482,-0.46241 -2.1592,0.64319 -1.7226,1.3497 0.18625,0.30138 0.0799,0.37114 -0.25255,0.16566 -0.68185,-0.42139 -4.0972,2.0489 -3.9394,2.8494 0.0601,0.30489 -0.34015,0.56485 -0.88945,0.57769 -0.5493,0.0129 -1.0095,0.36085 -1.0228,0.77335 -0.013,0.4125 -0.3097,0.68887 -0.65885,0.61415 -0.9396,-0.20107 -3.6355,1.8749 -3.2483,2.5013 0.2023,0.32735 0.0978,0.39361 -0.26605,0.16872 -0.7482,-0.46241 -2.1592,0.64319 -1.7226,1.3497 0.1847,0.29882 0.0804,0.37144 -0.2448,0.17046 -0.7193,-0.44455 -3.6534,1.6851 -3.241,2.3524 0.17705,0.2865 0.0534,0.34059 -0.29155,0.12744 -0.7482,-0.46241 -2.1592,0.64319 -1.7226,1.3497 0.1847,0.29882 0.0804,0.37144 -0.2448,0.17046 -0.6309,-0.38993 -3.6786,1.6445 -3.3237,2.2187 0.12375,0.20022 -0.16635,0.33319 -0.64465,0.29549 -0.48095,-0.0379 -0.8082,0.22739 -0.7322,0.59362 0.0756,0.36419 -0.0884,0.52264 -0.3643,0.35211 -0.5862,-0.36229 -3.5914,1.7207 -3.2588,2.2588 0.12375,0.20022 -0.1609,0.33319 -0.63255,0.29549 -0.4717,-0.0377 -0.863,0.26866 -0.86965,0.68079 -0.007,0.41214 -0.34955,0.75068 -0.76205,0.75232 -1.0958,0.005 -3.071,1.2289 -2.7694,1.717 0.14225,0.23015 -0.1327,0.38761 -0.611,0.34991 -0.48095,-0.0379 -0.8082,0.22739 -0.7322,0.59362 0.0756,0.36419 -0.0868,0.52359 -0.3609,0.35422 -0.60785,-0.37568 -3.1143,1.1871 -2.7776,1.7318 0.13218,0.21387 -0.151,0.35801 -0.62929,0.32031 -0.48097,-0.0379 -0.80822,0.22739 -0.73223,0.59362 0.0756,0.36419 -0.0698,0.53409 -0.32312,0.37756 -0.57727,-0.35678 -7.6334,4.1939 -7.3112,4.7152 0.12991,0.2102 -0.15513,0.35133 -0.63342,0.31363 -0.48097,-0.0379 -0.80822,0.22739 -0.73223,0.59362 0.0756,0.36419 -0.0868,0.52359 -0.36088,0.35422 -0.60786,-0.37568 -3.1143,1.1871 -2.7776,1.7318 0.13218,0.21387 -0.151,0.35801 -0.62929,0.32031 -0.48097,-0.0379 -0.80822,0.22739 -0.73223,0.59362 0.0756,0.36419 -0.0759,0.53033 -0.33662,0.36921 -0.69304,-0.42832 -4.1075,1.7223 -3.7228,2.3448 0.18857,0.30512 0.0886,0.38128 -0.23663,0.18027 -0.74185,-0.4585 -3.1762,1.1517 -2.7598,1.8255 0.18983,0.30714 0.0812,0.37317 -0.26341,0.16016 -0.71508,-0.44194 -4.1867,1.6115 -3.7953,2.2449 0.1535,0.24836 -0.10701,0.30341 -0.57891,0.12233 -0.62819,-0.24106 -0.74837,-0.15188 -0.44871,0.33298 0.26191,0.42378 0.21525,0.54231 -0.12959,0.32918 -0.73808,-0.45615 -4.1942,1.6469 -3.7876,2.3047 0.18937,0.30641 0.0884,0.38114 -0.24041,0.17792 -0.68916,-0.42592 -2.7198,0.57737 -2.357,1.1645 0.14225,0.23015 -0.1327,0.38761 -0.61099,0.34991 -0.48097,-0.0379 -0.80822,0.22739 -0.73223,0.59362 0.0756,0.36419 -0.0885,0.52253 -0.36467,0.35188 -0.73086,-0.4517 -2.6117,0.68752 -2.2095,1.3383 0.20568,0.33281 0.11233,0.41069 -0.23497,0.19604 -0.7345,-0.45394 -3.6242,1.2228 -3.2238,1.8706 0.16504,0.26703 0.0435,0.32692 -0.27019,0.13308 -0.76398,-0.47217 -5.1756,2.1456 -4.7571,2.8228 0.1902,0.30775 0.0898,0.38288 -0.23956,0.1793 -0.7234,-0.44708 -2.7111,0.59156 -2.3256,1.2152 0.1638,0.26503 -0.0834,0.32592 -0.56802,0.13995 -0.62819,-0.24106 -0.74837,-0.15188 -0.44871,0.33298 0.26965,0.43631 0.21587,0.54269 -0.15764,0.31184 -0.7234,-0.44708 -2.7111,0.59156 -2.3256,1.2152 0.1638,0.26503 -0.0834,0.32592 -0.56802,0.13995 -0.62819,-0.24106 -0.74837,-0.15188 -0.44871,0.33298 0.26965,0.43631 0.21587,0.54269 -0.15764,0.31184 -0.7234,-0.44708 -2.7111,0.59156 -2.3256,1.2152 0.1638,0.26503 -0.0834,0.32592 -0.56802,0.13995 -0.62819,-0.24106 -0.74837,-0.15188 -0.44871,0.33298 0.26335,0.42611 0.21536,0.54238 -0.13461,0.32608 -0.69141,-0.42731 -7.2072,3.1208 -6.8355,3.7223 0.15225,0.24636 -0.10927,0.29976 -0.58117,0.11868 -0.62819,-0.24106 -0.74837,-0.15188 -0.44871,0.33298 0.2685,0.43445 0.21578,0.54263 -0.15329,0.31453 -0.72585,-0.44859 -3.7175,1.0855 -3.3323,1.7088 0.16646,0.26934 -0.0771,0.33123 -0.56568,0.14374 -0.5782,-0.22188 -0.74125,-0.14036 -0.5,0.25 0.24126,0.39035 0.0782,0.47188 -0.5,0.25 -0.62819,-0.24106 -0.74837,-0.15188 -0.44871,0.33298 0.26189,0.42374 0.21525,0.54231 -0.12951,0.32923 -0.69224,-0.42782 -11.211,5.1192 -10.842,5.7172 0.15292,0.24743 -0.10806,0.30172 -0.57996,0.12064 -0.5782,-0.22188 -0.74125,-0.14036 -0.5,0.25 0.24126,0.39035 0.0782,0.47188 -0.5,0.25 -0.5782,-0.22188 -0.74125,-0.14036 -0.5,0.25 0.24126,0.39035 0.0782,0.47188 -0.5,0.25 -0.5782,-0.22188 -0.74125,-0.14036 -0.5,0.25 0.24126,0.39035 0.0782,0.47188 -0.5,0.25 -0.62819,-0.24106 -0.74837,-0.15188 -0.44871,0.33298 0.26657,0.43131 0.21562,0.54253 -0.14612,0.31897 -0.72875,-0.4504 -9.7284,4.075 -9.3433,4.6982 0.1708,0.27636 -0.067,0.3398 -0.56187,0.1499 -0.5122,-0.19655 -0.73419,-0.12895 -0.55083,0.16775 0.16994,0.27497 -0.18431,0.48046 -0.79297,0.45997 -0.60941,-0.0205 -1.0471,0.23373 -0.98114,0.56998 0.0734,0.37426 -0.19772,0.48547 -0.70702,0.29003 -0.55045,-0.21123 -0.70659,-0.12373 -0.46804,0.26227 0.24126,0.39035 0.0782,0.47188 -0.5,0.25 -0.5782,-0.22188 -0.74125,-0.14036 -0.5,0.25 0.24126,0.39035 0.0782,0.47188 -0.5,0.25 -0.5782,-0.22188 -0.74125,-0.14036 -0.5,0.25 0.24126,0.39035 0.0782,0.47188 -0.5,0.25 -0.5782,-0.22188 -0.74125,-0.14036 -0.5,0.25 0.24126,0.39035 0.0782,0.47188 -0.5,0.25 -0.5782,-0.22188 -0.74125,-0.14036 -0.5,0.25 0.24126,0.39035 0.0782,0.47188 -0.5,0.25 -0.5782,-0.22188 -0.74125,-0.14036 -0.5,0.25 0.24126,0.39035 0.0782,0.47188 -0.5,0.25 -0.62819,-0.24106 -0.74837,-0.15188 -0.44871,0.33298 0.28803,0.46604 0.21765,0.54379 -0.23757,0.26245 -0.74869,-0.46272 -11.595,4.6997 -11.204,5.3326 0.13639,0.22068 -0.13812,0.25307 -0.61002,0.072 -0.62819,-0.24106 -0.74837,-0.15188 -0.44871,0.33298 0.28625,0.46317 0.21746,0.54367 -0.22887,0.26783 -0.74536,-0.46066 -7.6038,2.6939 -7.2172,3.3195 0.139,0.2249 -0.13337,0.26076 -0.60527,0.0797 -0.62819,-0.24106 -0.74837,-0.15188 -0.44871,0.33298 0.28428,0.45998 0.21725,0.54354 -0.21949,0.27362 -0.80306,-0.49632 -5.5972,1.714 -5.1804,2.3884 0.18229,0.29495 0.0545,0.34282 -0.31151,0.11665 -0.74057,-0.4577 -4.6219,1.1821 -4.2442,1.7932 0.14429,0.23346 -0.12375,0.27632 -0.59565,0.0952 -0.62819,-0.24106 -0.74837,-0.15188 -0.44871,0.33298 0.27957,0.45236 0.21678,0.54325 -0.19816,0.28681 -0.74596,-0.46103 -3.6392,0.6673 -3.2648,1.2732 0.14829,0.23994 -0.11648,0.28809 -0.58838,0.10701 -0.62819,-0.24106 -0.74837,-0.15188 -0.44871,0.33298 0.27957,0.45236 0.21678,0.54325 -0.19816,0.28681 -0.80583,-0.49803 -3.6243,0.69145 -3.2135,1.3562 0.19171,0.3102 0.0763,0.3681 -0.28654,0.14382 -0.80583,-0.49803 -3.6243,0.69145 -3.2135,1.3562 0.19171,0.3102 0.0763,0.3681 -0.28654,0.14382 -0.80583,-0.49803 -3.6243,0.69145 -3.2135,1.3562 0.19171,0.3102 0.0763,0.3681 -0.28654,0.14382 -0.80583,-0.49803 -3.6243,0.69145 -3.2135,1.3562 0.19171,0.3102 0.0763,0.3681 -0.28654,0.14382 -0.80583,-0.49803 -3.6243,0.69145 -3.2135,1.3562 0.1869,0.30242 0.078,0.3691 -0.26083,0.1597 -0.81768,-0.50535 -2.6578,0.16301 -2.2528,0.81827 0.20024,0.32399 0.101,0.39694 -0.24721,0.18173 -0.81768,-0.50535 -2.6578,0.16301 -2.2528,0.81827 0.20525,0.3321 0.0998,0.39619 -0.27292,0.16585 -0.80583,-0.49803 -3.6243,0.69145 -3.2135,1.3562 0.1869,0.30242 0.078,0.3691 -0.26083,0.1597 -0.81768,-0.50535 -2.6578,0.16301 -2.2528,0.81827 0.20024,0.32399 0.101,0.39694 -0.24721,0.18173 -0.81768,-0.50535 -2.6578,0.16301 -2.2528,0.81827 0.20677,0.33456 0.0994,0.39595 -0.28116,0.16075 -0.83974,-0.51899 -5.1366,1.1632 -4.7148,1.8458 0.19731,0.31926 0.0939,0.38851 -0.25658,0.17188 -0.83018,-0.51308 -4.154,0.66372 -3.7448,1.3258 0.19763,0.31978 0.0966,0.39154 -0.24987,0.17743 -0.81768,-0.50535 -2.6578,0.16301 -2.2528,0.81827 0.20024,0.32399 0.101,0.39694 -0.24721,0.18173 -0.72959,-0.45091 -2.6782,0.12998 -2.3294,0.69439 0.14187,0.22956 -0.22755,0.29041 -0.82093,0.13524 -0.80375,-0.21018 -0.97548,-0.11484 -0.67343,0.37388 0.26968,0.43636 0.21065,0.53564 -0.17629,0.29649 -0.72959,-0.45091 -2.6782,0.12998 -2.3294,0.69439 0.14187,0.22956 -0.22755,0.29041 -0.82093,0.13524 -0.80375,-0.21018 -0.97548,-0.11484 -0.67343,0.37388 0.26968,0.43636 0.21065,0.53564 -0.17629,0.29649 -0.72959,-0.45091 -2.6782,0.12998 -2.3294,0.69439 0.14187,0.22956 -0.22755,0.29041 -0.82093,0.13524 -0.80375,-0.21018 -0.97548,-0.11484 -0.67343,0.37388 0.27098,0.43846 0.21075,0.5357 -0.18159,0.29322 -0.83018,-0.51308 -4.154,0.66372 -3.7448,1.3258 0.19898,0.32196 0.0962,0.39133 -0.25663,0.17325 -0.7272,-0.44943 -5.6712,1.1344 -5.3192,1.704 0.14001,0.22655 -0.23093,0.28494 -0.82431,0.12977 -0.80375,-0.21018 -0.97548,-0.11484 -0.67343,0.37388 0.27147,0.43927 0.21079,0.53573 -0.18366,0.29194 -0.72694,-0.44928 -7.1708,1.6345 -6.8183,2.2049 0.13985,0.22628 -0.23123,0.28445 -0.82461,0.12928 -0.69133,-0.18079 -0.96074,-0.091 -0.75,0.25 0.21074,0.34099 -0.0587,0.43079 -0.75,0.25 -0.80375,-0.21018 -0.97548,-0.11484 -0.67343,0.37388 0.27056,0.43778 0.21072,0.53568 -0.17987,0.29428 -0.67304,-0.41596 -21.11,6.2362 -20.784,6.7649 0.11867,0.19201 -0.26974,0.22214 -0.86312,0.067 -0.73382,-0.1919 -0.96561,-0.0989 -0.72472,0.2909 0.22601,0.3657 0.08603,0.47015 -0.38688,0.28868 -1.0193,-0.39115 -7.8311,1.8586 -7.4575,2.4631 0.17361,0.2809 0.03995,0.32582 -0.31562,0.10608 -0.84448,-0.52193 -5.1035,0.71585 -4.7014,1.3664 0.19144,0.30976 0.07063,0.36183 -0.30328,0.13074 -0.8347,-0.51588 -10.086,2.2386 -9.6875,2.8842 0.1766,0.28574 0.05644,0.34379 -0.28054,0.13553 -0.85747,-0.52995 -3.6419,0.18093 -3.2422,0.82773 0.2022,0.32717 0.09491,0.39028 -0.27491,0.16172 -0.83614,-0.51677 -7.102,1.2284 -6.7067,1.868 0.18694,0.30248 0.06159,0.35131 -0.31088,0.12112 -0.85444,-0.52808 -9.0935,1.7246 -8.6908,2.3762 0.18581,0.30065 0.06573,0.35552 -0.29293,0.13386 -0.86565,-0.53501 -9.6186,1.7003 -9.215,2.3533 0.19328,0.31273 0.07989,0.37223 -0.28251,0.14826 -0.73776,-0.45597 -18.081,3.7637 -17.74,4.3161 0.13328,0.21564 -0.08553,0.26626 -0.48622,0.1125 -0.40069,-0.15376 -5.6436,0.85326 -11.651,2.2378 -51.832,11.946 -106.45,20.101 -162.67,24.288 -12.767,0.95082 -15.653,0.97712 -15.378,0.14008 z M 418.52,341.74 c 0.49775,-0.55 0.7925,-1 0.655,-1 -0.1375,0 -0.65725,0.45 -1.155,1 -0.49775,0.55 -0.7925,1 -0.655,1 0.1375,0 0.65725,-0.45 1.155,-1 z m 37.5,-37.5 c 0.49775,-0.55 0.7925,-1 0.655,-1 -0.1375,0 -0.65725,0.45 -1.155,1 -0.49775,0.55 -0.7925,1 -0.655,1 0.1375,0 0.65725,-0.45 1.155,-1 z"
           style="stroke:#ffffff;stroke-width:0.18898;paint-order:stroke fill markers"
           id="path49"
           inkscape:connector-curvature="0" />
        <path
           transform="scale(0.26458,0.26458)"
           d="m -179.37,579.09 c -0.81689,-0.0323 -1.149,-0.0723 -1.149,-0.13833 0,-0.0897 1.0034,-0.44747 2.1912,-0.78139 3.1099,-0.8743 9.3008,-2.252 21.364,-4.7545 1.4462,-0.30001 2.6382,-0.53749 2.6487,-0.52773 0.0105,0.01 5.9e-4,0.0351 -0.0221,0.0562 -0.0227,0.0211 -1.8808,0.4299 -4.1292,0.90833 -7.4524,1.5858 -9.7481,2.098 -12.595,2.81 -3.0276,0.75714 -4.4025,1.1979 -4.5677,1.4643 -0.0723,0.11658 0.0356,0.29606 0.22572,0.3757 0.41665,0.17449 0.8121,0.20716 2.5079,0.20719 1.5244,3e-5 3.0336,-0.0592 5.3917,-0.21164 0.46182,-0.0299 0.8483,-0.0474 0.85884,-0.0391 0.0834,0.0663 -0.39142,0.1105 -2.715,0.25274 -3.578,0.21904 -5.7818,0.32905 -7.1595,0.35741 -0.63197,0.013 -1.3579,0.0299 -1.6131,0.0375 -0.25522,0.008 -0.81207,1.3e-4 -1.2374,-0.0167 z"
           style="stroke:#ffffff;stroke-width:0.016703;paint-order:stroke fill markers"
           id="path51"
           inkscape:connector-curvature="0" />
        <g
           id="g53"
           style="stroke:#ff2a2a;stroke-width:0.1">
          <path
             d="m -46.68,152.99 c 0.02572,-0.001 0.05165,0.002 0.07729,-7.9e-4 0.03399,-5.3e-4 0.06608,-0.0127 0.09868,-0.0209 0.03406,-0.009 0.06893,-0.0129 0.10366,-0.0178 0.02598,-0.002 0.05025,-0.0114 0.07494,-0.0188 0.01603,-0.006 0.03251,-0.01 0.04915,-0.0135 0.0154,-0.003 0.03108,-0.004 0.04674,-0.004 0.02376,-2.6e-4 0.0475,-1.6e-4 0.07125,-1.4e-4 0.0051,1e-5 0.01029,5.3e-4 0.01543,2e-5 0.0099,-8e-4 0.01958,-0.003 0.02939,-0.005 0.01741,-0.003 0.03466,-0.006 0.05218,-0.008 0.03718,-0.004 0.07461,-0.004 0.11197,-0.005 0.02043,-1.8e-4 0.04087,-1.6e-4 0.0613,-1.5e-4 0,0 -0.0057,7.9e-4 -0.0057,7.9e-4 -0.01667,-3e-5 -0.03334,1e-5 -0.05,1.4e-4 -0.03735,5.3e-4 -0.07478,8e-4 -0.11196,0.005 -0.0361,0.004 -0.07176,0.0133 -0.10827,0.0127 -0.01995,-1e-5 -0.03993,-1.2e-4 -0.05989,1.4e-4 -0.01564,5.3e-4 -0.03134,10e-4 -0.04673,0.004 -0.01664,0.003 -0.03312,0.008 -0.04915,0.0134 -0.02471,0.007 -0.04898,0.0171 -0.075,0.0189 -0.03473,0.005 -0.06962,0.009 -0.10368,0.0178 -0.0326,0.008 -0.06468,0.0204 -0.09865,0.021 -0.02954,0.001 -0.0591,5.3e-4 -0.08867,7.9e-4 0,0 0.0057,-7.9e-4 0.0057,-7.9e-4 z"
             style="paint-order:stroke fill markers"
             id="path55"
             inkscape:connector-curvature="0" />
          <path
             d="m -46.458,153.03 c 0.0093,-0.002 0.01857,-0.003 0.02787,-0.005 0.0079,-0.001 0.01585,-0.002 0.02379,-0.004 0.0071,-10e-4 0.01431,-0.002 0.02148,-0.003 0.0065,-7.9e-4 0.01286,-0.002 0.01926,-0.003 0.0071,-10e-4 0.01402,-0.003 0.02098,-0.005 0.0087,-0.002 0.01717,-0.005 0.02551,-0.009 0.0033,-0.001 0.0065,-0.003 0.0098,-0.004 7.94e-4,-2.6e-4 0.0026,-9e-5 0.0027,-0.001 5.29e-4,-0.005 -0.0041,-0.0329 -0.0045,-0.0354 -0.0026,-0.0181 -0.006,-0.0362 -0.0075,-0.0544 -5.29e-4,-0.007 -7.94e-4,-0.0139 2.09e-4,-0.0209 2.65e-4,-0.002 0.0011,-0.004 0.0019,-0.007 0.0029,-0.008 0.0093,-0.0114 0.01704,-0.0134 0.0011,-1.9e-4 0.0019,-2.7e-4 0.0029,-5.3e-4 l 0.0021,2.6e-4 c -0.0011,1.9e-4 -0.0019,2.7e-4 -0.0029,5.3e-4 -0.0077,0.002 -0.01408,0.005 -0.01704,0.0131 -5.29e-4,0.002 -0.0013,0.004 -0.0019,0.007 -0.0011,0.007 -7.94e-4,0.0139 -2.65e-4,0.0209 0.0016,0.0183 0.0048,0.0363 0.0074,0.0544 5.29e-4,0.003 0.005,0.0305 0.0046,0.0357 -6.6e-5,0.001 -0.0019,8e-4 -0.0027,0.001 -0.0033,10e-4 -0.0065,0.003 -0.0098,0.004 -0.0083,0.003 -0.01677,0.007 -0.02551,0.009 -0.0069,0.002 -0.01389,0.004 -0.02095,0.005 -0.0064,10e-4 -0.01278,0.002 -0.01924,0.003 -0.0072,0.001 -0.01434,0.002 -0.02148,0.003 -0.0079,10e-4 -0.01588,0.002 -0.02379,0.003 -0.0093,0.002 -0.01857,0.003 -0.02785,0.005 0,0 -0.0021,-2.7e-4 -0.0021,-2.7e-4 z"
             style="paint-order:stroke fill markers"
             id="path57"
             inkscape:connector-curvature="0" />
          <path
             d="m -46.283,152.89 c 0.0021,-7.9e-4 0.0062,-0.007 0.0078,-0.008 0.0055,-0.002 0.01773,-7.9e-4 0.02331,-5.3e-4 0.007,2.7e-4 0.01394,0.001 0.02093,0.002 0.0044,2.3e-4 0.0088,-2.7e-4 0.01312,-8e-4 0.0063,-5.3e-4 0.01249,-0.002 0.01871,-0.003 0.0051,-8e-4 0.01003,-0.002 0.01495,-0.003 0.0044,-10e-4 0.0091,-0.002 0.01368,-0.002 0.0048,-7.9e-4 0.0093,-0.003 0.01418,-0.003 0.0095,-7.9e-4 0.01804,-0.005 0.02676,-0.008 0.01381,-0.006 0.02735,-0.0119 0.04131,-0.0172 0.01029,-0.004 0.02053,-0.007 0.03102,-0.0103 0.0089,-0.003 0.01789,-0.005 0.0268,-0.008 0.0071,-0.003 0.01445,-0.005 0.02186,-0.007 0.0062,-0.001 0.01238,-0.002 0.01852,-0.004 0.006,-0.002 0.01212,-0.004 0.0182,-0.006 0.0028,-8e-4 0.0057,-0.002 0.0085,-0.002 0,0 0.0021,2.7e-4 0.0021,2.7e-4 -0.0028,7.9e-4 -0.0057,0.002 -0.0085,0.002 -0.0061,0.002 -0.01217,0.004 -0.0182,0.006 -0.0061,0.001 -0.01236,0.002 -0.01852,0.004 -0.0074,0.002 -0.01476,0.004 -0.02188,0.007 -0.0089,0.003 -0.01791,0.005 -0.02679,0.008 -0.0105,0.003 -0.02074,0.007 -0.03103,0.0103 -0.01397,0.005 -0.02751,0.0115 -0.04131,0.0172 -0.0087,0.003 -0.01728,0.007 -0.02673,0.008 -0.0048,7.9e-4 -0.0094,0.003 -0.01418,0.003 -0.0046,2.2e-4 -0.0092,5.3e-4 -0.01368,0.002 -0.0049,0.001 -0.0099,0.003 -0.01495,0.003 -0.0062,0.001 -0.01244,0.002 -0.01873,0.003 -0.0057,5.3e-4 -0.01135,0.001 -0.01712,7.9e-4 -0.007,-2.6e-4 -0.01392,-0.002 -0.0209,-0.002 -0.0052,-5.3e-4 -0.01442,-0.002 -0.01931,5.3e-4 -0.0016,5.3e-4 -0.0058,0.007 -0.0078,0.008 l -0.0021,-1.7e-4 z"
             style="paint-order:stroke fill markers"
             id="path59"
             inkscape:connector-curvature="0" />
          <path
             d="m -46.106,152.84 c 0.01318,-0.003 0.02669,-0.004 0.04007,-0.006 0.01127,-0.002 0.0227,-0.002 0.03399,-0.004 0.0056,-7.9e-4 0.01217,-0.002 0.01778,-0.003 0.01537,-0.003 0.03084,-0.005 0.04635,-0.007 0.01275,-0.001 0.02561,-0.002 0.03829,-0.004 0.01474,-0.003 0.02927,-0.006 0.04381,-0.01 0.01482,-0.004 0.02984,-0.007 0.04461,-0.0105 0.0088,-0.002 0.01712,-0.005 0.02548,-0.008 0.0062,-0.002 0.01175,-0.005 0.01733,-0.009 0.0079,-0.005 0.01598,-0.01 0.02416,-0.014 0.0085,-0.004 0.01714,-0.007 0.02572,-0.0111 0.0071,-0.003 0.01423,-0.006 0.0214,-0.008 0.0089,-0.003 0.01725,-0.008 0.02596,-0.012 0.0093,-0.004 0.01868,-0.008 0.02794,-0.012 0.0076,-0.003 0.01532,-0.006 0.02257,-0.01 0.0039,-0.002 0.0019,-0.001 0.0056,-0.003 l 0.0021,2.1e-4 c -0.0037,0.002 -0.0019,0.001 -0.0056,0.003 -0.0073,0.004 -0.01492,0.007 -0.02259,0.01 -0.0093,0.004 -0.01868,0.008 -0.02795,0.0119 -0.0087,0.004 -0.01704,0.009 -0.02596,0.012 -0.0071,0.003 -0.01429,0.005 -0.02138,0.008 -0.0086,0.004 -0.01725,0.007 -0.02574,0.011 -0.0082,0.004 -0.01625,0.009 -0.02416,0.014 -0.0056,0.003 -0.01114,0.007 -0.01733,0.009 -0.0084,0.003 -0.01667,0.006 -0.02551,0.008 -0.01476,0.004 -0.02981,0.007 -0.04463,0.0105 -0.01452,0.003 -0.02906,0.007 -0.04379,0.01 -0.01267,0.002 -0.02553,0.003 -0.0383,0.004 -0.0155,0.002 -0.03099,0.004 -0.04636,0.007 -0.0054,0.001 -0.01236,0.002 -0.01778,0.003 -0.0113,0.002 -0.02273,0.002 -0.03399,0.004 -0.01471,0.002 -0.02937,0.004 -0.04406,0.006 l 0.0021,-2.6e-4 z"
             style="paint-order:stroke fill markers"
             id="path61"
             inkscape:connector-curvature="0" />
          <path
             d="m -45.976,152.78 c 0.01902,-0.006 0.03847,-0.0115 0.05789,-0.0165 0.01987,-0.005 0.03973,-0.0105 0.05957,-0.0159 0.01106,-0.003 0.02204,-0.006 0.03306,-0.008 0.01029,-0.003 0.02066,-0.005 0.03113,-0.007 0.01024,-0.003 0.02045,-0.006 0.03073,-0.01 0.0092,-0.002 0.01831,-0.005 0.02744,-0.008 0.0067,-0.002 0.01349,-0.004 0.02029,-0.005 0.004,-7.9e-4 0.0021,-2.6e-4 0.0059,-0.001 0,0 0.0021,2.7e-4 0.0021,2.7e-4 -0.0038,0.001 -0.0019,5.3e-4 -0.0059,0.001 -0.0068,0.002 -0.01355,0.004 -0.02032,0.005 -0.0091,0.003 -0.0182,0.006 -0.02744,0.008 -0.01027,0.003 -0.02048,0.006 -0.03073,0.01 -0.01048,0.002 -0.02082,0.005 -0.03113,0.007 -0.01103,0.003 -0.02201,0.006 -0.03309,0.008 -0.01984,0.005 -0.03973,0.0106 -0.05961,0.0159 -0.01939,0.005 -0.03881,0.0102 -0.05781,0.0165 0,0 -0.0021,-2.5e-4 -0.0021,-2.5e-4 z"
             style="paint-order:stroke fill markers"
             id="path63"
             inkscape:connector-curvature="0" />
          <path
             d="m -45.69,152.7 c 0.009,2.7e-4 0.01789,-5.3e-4 0.02681,-10e-4 0.0074,-2.6e-4 0.01479,-0.002 0.02222,-0.002 0.0067,-2.7e-4 0.01326,-0.002 0.0199,-0.002 0.0127,-0.003 0.02558,-0.006 0.03814,-0.01 0.01257,-0.004 0.02477,-0.009 0.03739,-0.0131 0.0058,-0.002 0.01188,-0.004 0.01773,-0.007 0.0061,-0.002 0.01064,-0.005 0.01572,-0.008 0.0047,-0.003 0.0098,-0.006 0.01524,-0.008 0.0081,-0.003 0.01672,-0.005 0.02522,-0.007 0.01386,-0.003 0.02733,-0.008 0.04099,-0.0114 0.01228,-0.003 0.02426,-0.007 0.03652,-0.0104 0.01199,-0.003 0.02379,-0.007 0.03575,-0.0109 0.01029,-0.003 0.0208,-0.005 0.03139,-0.007 0.0072,-0.001 0.01439,-0.003 0.02172,-0.004 0.0052,-0.001 0.01037,-0.002 0.01564,-0.002 0.0039,-2.3e-4 0.0079,-2e-4 0.01183,-5.3e-4 0,0 0.0021,2.7e-4 0.0021,2.7e-4 -0.0039,2.6e-4 -0.0079,2.6e-4 -0.01183,5.3e-4 -0.0053,2.6e-4 -0.01045,10e-4 -0.01561,0.002 -0.0073,0.001 -0.0145,0.003 -0.02172,0.004 -0.01061,0.002 -0.02111,0.003 -0.0314,0.007 -0.01196,0.004 -0.02379,0.007 -0.03575,0.0109 -0.01228,0.003 -0.02426,0.007 -0.03653,0.0104 -0.01365,0.004 -0.02713,0.008 -0.04097,0.0114 -0.0085,0.002 -0.01712,0.004 -0.02519,0.007 -0.0055,0.002 -0.01053,0.005 -0.01524,0.008 -0.0053,0.004 -0.0095,0.007 -0.01572,0.008 -0.0058,0.002 -0.01193,0.004 -0.01775,0.007 -0.01265,0.004 -0.02484,0.009 -0.03742,0.0131 -0.01254,0.004 -0.02543,0.007 -0.0381,0.01 -0.0066,5.3e-4 -0.01323,0.002 -0.0199,0.002 -0.0074,5.3e-4 -0.01476,0.002 -0.02222,0.002 -0.01027,7.9e-4 -0.02053,0.002 -0.03083,10e-4 l 0.0021,-2.6e-4 z"
             style="paint-order:stroke fill markers"
             id="path65"
             inkscape:connector-curvature="0" />
          <path
             d="m -46.422,153.04 c 0.01413,0.006 0.02863,0.0116 0.04297,0.0173 0.01016,0.004 0.0208,0.007 0.03105,0.0114 0.0081,0.003 0.01662,0.005 0.02447,0.008 0.0058,0.003 0.01167,0.007 0.01738,0.0102 0.0073,0.004 0.015,0.008 0.02294,0.0116 0.0058,0.002 0.01191,0.003 0.01781,0.006 0.0051,0.002 0.01027,0.003 0.01569,0.004 0.0069,0.001 0.01381,0.002 0.02072,0.003 0.0061,0.001 0.01233,0.002 0.01855,0.002 0.0074,0.001 0.01471,0.003 0.02215,0.004 0.0056,2.5e-4 0.01109,0.001 0.01664,0.002 0.0057,7.9e-4 0.0114,0.002 0.0172,0.002 0.0079,0.001 0.01572,0.002 0.02363,0.002 0.0072,2.7e-4 0.01447,2.7e-4 0.0217,2.7e-4 0.0056,0 0.01122,-1e-5 0.01683,-1e-5 0.0053,-1e-5 0.01053,-1e-5 0.01577,-1e-5 l 0.01754,0 0.0024,0 -0.0021,2.6e-4 -0.0024,0 -0.01349,0 c -0.0053,0 -0.0105,1e-5 -0.01577,1e-5 -0.007,1e-5 -0.01389,2e-5 -0.02085,1e-5 -0.0072,-2e-5 -0.01447,-2e-5 -0.0217,-2.6e-4 -0.0079,-5.3e-4 -0.01577,-0.001 -0.02363,-0.002 -0.0058,-5.3e-4 -0.01146,-0.002 -0.0172,-0.002 -0.0055,-8e-4 -0.01103,-0.002 -0.01662,-0.002 -0.0074,-7.9e-4 -0.01476,-0.002 -0.02215,-0.004 -0.0062,-2.6e-4 -0.01241,-7.9e-4 -0.01855,-0.002 -0.0069,-0.001 -0.01387,-0.001 -0.02072,-0.003 -0.0054,-7.9e-4 -0.01056,-0.002 -0.01569,-0.004 -0.0059,-0.002 -0.01199,-0.003 -0.01781,-0.006 -0.0079,-0.003 -0.01561,-0.007 -0.02294,-0.0117 -0.0057,-0.004 -0.01156,-0.007 -0.01738,-0.0102 -0.0079,-0.004 -0.01638,-0.005 -0.02447,-0.008 -0.01027,-0.004 -0.02088,-0.007 -0.03102,-0.0114 -0.01434,-0.006 -0.02884,-0.0111 -0.04301,-0.0173 l 0.0021,-2.6e-4 z"
             style="paint-order:stroke fill markers"
             id="path67"
             inkscape:connector-curvature="0" />
          <path
             d="m -46.077,153.11 0.03144,0 0.03195,0 0.02254,0 0.01992,0 c 0.0072,-2.6e-4 0.01445,2.4e-4 0.02167,10e-4 0.0062,5.3e-4 0.01249,7.9e-4 0.01873,0.002 0.006,5.3e-4 0.01198,0.002 0.01796,0.002 0.0067,7.9e-4 0.01336,0.001 0.02005,0.001 0.0063,4e-5 0.01254,2e-5 0.01881,2.6e-4 0.006,10e-4 0.01201,0.003 0.0181,0.003 0.0058,5.3e-4 0.01169,5.3e-4 0.01754,5.3e-4 0.0053,1e-5 0.01058,-1e-5 0.01588,-1e-5 0.0054,-1e-5 0.01077,-2e-5 0.01617,-2e-5 0.0059,-2.3e-4 0.01167,1.9e-4 0.01746,10e-4 0.0051,0.001 0.01029,0.002 0.01556,0.003 0.0051,5.3e-4 0.01029,5.3e-4 0.01545,5.3e-4 l 0.0026,0 c 0,0 -0.0021,2.7e-4 -0.0021,2.7e-4 l -0.0026,0 c -0.0052,-3e-5 -0.01032,-4e-5 -0.01545,-5.3e-4 -0.0053,-5.3e-4 -0.0104,-0.002 -0.01556,-0.003 -0.0045,-5.2e-4 -0.0088,-10e-4 -0.01344,-7.9e-4 -0.0054,0 -0.01077,0 -0.01617,1e-5 -0.0066,1e-5 -0.01328,3e-5 -0.0199,1e-5 -0.0058,-3e-5 -0.01172,-4e-5 -0.01754,-5.3e-4 -0.0061,-7.9e-4 -0.01206,-0.002 -0.0181,-0.003 -0.0058,-10e-4 -0.01283,2.6e-4 -0.01881,-2.7e-4 -0.0067,-1.3e-4 -0.01341,-2.6e-4 -0.02008,-10e-4 -0.006,-7.9e-4 -0.01196,-0.002 -0.01797,-0.002 -0.0062,-7.9e-4 -0.01249,-0.001 -0.01871,-0.002 -0.0072,-7.9e-4 -0.01442,-0.001 -0.02167,-0.001 l -0.01992,0 -0.02254,0 -0.03194,0 -0.03148,0 0.0021,-2.6e-4 z"
             style="paint-order:stroke fill markers"
             id="path69"
             inkscape:connector-curvature="0" />
          <path
             d="m -45.759,153.11 c 0.0082,-0.002 0.01654,-0.003 0.0249,-0.003 0.0085,-2.2e-4 0.01691,-0.001 0.02535,-0.002 0.009,-0.002 0.01786,-0.003 0.02691,-0.004 0.0065,-5.3e-4 0.01299,-5.3e-4 0.01947,-0.001 0.0062,-7.9e-4 0.01249,-0.001 0.01876,-0.001 0.0075,-1.6e-4 0.01497,-1.4e-4 0.02246,-1.4e-4 0.0081,5e-5 0.01627,-0.001 0.02442,-0.002 0.0098,-5.3e-4 0.01969,-5.3e-4 0.02953,-5.3e-4 0.01341,-3e-5 0.02686,-1e-5 0.04029,-1e-5 0.01873,1e-5 0.03744,1e-5 0.05616,1e-5 0.02506,5.3e-4 0.05004,-0.002 0.0749,-0.005 0.01728,-0.002 0.03464,-0.004 0.05205,-0.005 0.0104,-5.3e-4 0.02077,-5.3e-4 0.03117,-5.3e-4 0.01307,3e-5 0.02614,4e-5 0.03921,5e-5 0.01132,2.6e-4 0.02262,-0.001 0.03387,-0.002 l 0.0021,2.6e-4 c -0.01257,10e-4 -0.02516,0.003 -0.03784,0.002 -0.0131,-1e-5 -0.02617,-2e-5 -0.03925,-4e-5 -0.0091,-1e-5 -0.01812,3e-5 -0.02718,5.3e-4 -0.01744,7.9e-4 -0.03479,0.003 -0.0521,0.005 -0.02614,0.003 -0.05241,0.006 -0.07879,0.005 -0.01873,0 -0.03746,0 -0.05619,-1e-5 -0.01212,0 -0.02421,-1e-5 -0.03632,2e-5 -0.0098,4e-5 -0.01968,3e-5 -0.02951,5.3e-4 -0.0081,5.3e-4 -0.01624,0.001 -0.02442,0.002 -0.0075,0 -0.01498,-1e-5 -0.02246,1.4e-4 -0.0063,2e-4 -0.01254,5.3e-4 -0.01876,0.001 -0.0065,7.9e-4 -0.01299,7.9e-4 -0.01947,0.001 -0.009,0.001 -0.01797,0.003 -0.02692,0.004 -0.0084,5.3e-4 -0.01688,0.002 -0.02535,0.002 -0.0084,5.3e-4 -0.01669,0.001 -0.02487,0.003 0,0 -0.0021,-2.7e-4 -0.0021,-2.7e-4 z"
             style="paint-order:stroke fill markers"
             id="path71"
             inkscape:connector-curvature="0" />
          <path
             d="m -45.25,153.07 c 0.0167,-0.002 0.03358,-0.003 0.0504,-0.003 0.02066,-5.3e-4 0.04131,-5.3e-4 0.06197,-5.3e-4 0.01654,-1e-5 0.03306,1e-5 0.04959,1e-5 0.01593,5.3e-4 0.03181,-0.001 0.0477,-0.002 0.0176,-0.002 0.03511,-0.005 0.05277,-0.007 0.0099,-0.001 0.01987,-8e-4 0.02979,-0.002 0.0083,-8e-4 0.01659,-10e-4 0.02492,-0.002 0.01005,-2.2e-4 0.02011,-2.2e-4 0.03018,-2.3e-4 0.01005,0 0.02013,1e-5 0.0302,1e-5 0.0049,1e-5 0.0099,1e-5 0.01479,1e-5 0.0033,0 0.0021,2.6e-4 0.0039,-2.4e-4 l 0.0021,2.6e-4 c -0.0075,5.3e-4 -0.01511,2.3e-4 -0.02265,2.5e-4 -0.0087,0 -0.01746,-1e-5 -0.02619,-1e-5 -0.01005,1e-5 -0.02011,0 -0.03018,2.3e-4 -0.0083,2.3e-4 -0.01662,5.2e-4 -0.0249,0.002 -0.0099,8e-4 -0.0199,5.3e-4 -0.02981,0.002 -0.01767,0.002 -0.0352,0.005 -0.05279,0.007 -0.0172,0.001 -0.03438,0.003 -0.05164,0.002 -0.01521,-10e-6 -0.03043,-2e-5 -0.04565,-2e-5 -0.02066,2e-5 -0.04132,6e-5 -0.06198,5.3e-4 -0.0168,5.3e-4 -0.03366,7.9e-4 -0.05033,0.003 l -0.0021,-2.6e-4 z"
             style="paint-order:stroke fill markers"
             id="path73"
             inkscape:connector-curvature="0" />
          <path
             d="m -44.861,153.04 c 0.02037,-0.005 0.04112,-0.007 0.06192,-0.008 0.02967,-0.002 0.05933,-0.004 0.08885,-0.008 0.02334,-0.002 0.04657,-0.006 0.0698,-0.009 0.01662,-0.002 0.03328,-0.005 0.04989,-0.007 0.01654,-0.003 0.03334,-0.004 0.0501,-0.004 0.01725,-0.001 0.03428,-0.005 0.05135,-0.007 0.01225,-0.002 0.02466,-0.004 0.03702,-0.005 0.0096,-0.002 0.01934,-10e-4 0.02896,-0.002 0.0093,-0.002 0.01865,-0.003 0.02809,-0.003 0.0083,-5.3e-4 0.01669,-5.3e-4 0.02506,-5.3e-4 0.0091,0 0.01828,2e-5 0.02742,3e-5 l 0.02037,0 c 0.0065,-2.6e-4 0.01286,2e-4 0.01924,0.001 0.0098,0.002 0.01926,0.005 0.02882,0.007 0.009,0.002 0.01802,0.004 0.02727,0.005 0.0013,1.1e-4 0.0026,2.1e-4 0.0038,2.6e-4 0,0 -0.0021,2.7e-4 -0.0021,2.7e-4 -0.0013,-1.1e-4 -0.0026,-2.2e-4 -0.0038,-2.7e-4 -0.0092,-0.001 -0.01828,-0.003 -0.02726,-0.005 -0.0096,-0.003 -0.01902,-0.006 -0.02883,-0.007 -0.0064,-0.001 -0.01278,-0.001 -0.01926,-0.001 -0.0068,0 -0.01357,-1e-5 -0.02037,-1e-5 -0.0078,-1e-5 -0.01561,-2e-5 -0.02342,-2e-5 -0.0084,1e-5 -0.01672,3e-5 -0.02506,5.3e-4 -0.0094,5.3e-4 -0.01879,0.002 -0.02808,0.003 -0.0096,0.001 -0.01937,7.9e-4 -0.02897,0.002 -0.01238,0.002 -0.02479,0.003 -0.03704,0.005 -0.01707,0.003 -0.03411,0.006 -0.05136,0.007 -0.01675,5.3e-4 -0.03355,0.001 -0.05009,0.004 -0.01662,0.003 -0.03327,0.005 -0.0499,0.007 -0.02326,0.003 -0.04648,0.007 -0.06984,0.009 -0.02952,0.004 -0.05918,0.006 -0.08884,0.008 -0.02077,0.001 -0.0415,0.003 -0.06184,0.008 0,0 -0.0021,-2.7e-4 -0.0021,-2.7e-4 z"
             style="paint-order:stroke fill markers"
             id="path75"
             inkscape:connector-curvature="0" />
          <path
             d="m -44.833,153.05 c 0.01233,-0.001 0.02471,-0.002 0.0371,-0.003 0.01326,-0.001 0.02652,-0.002 0.03978,-0.003 0.01037,-8e-4 0.02072,-0.002 0.03105,-0.003 0.009,-0.001 0.01796,-0.002 0.02696,-0.003 0.0075,-7.9e-4 0.01505,-0.002 0.02257,-0.003 0.007,-0.001 0.01392,-0.002 0.02088,-0.003 0.0028,-5.3e-4 0.0056,-8e-4 0.0085,-0.001 l 0.0021,2.6e-4 c -0.0028,2.7e-4 -0.0056,8e-4 -0.0085,0.001 -0.007,0.001 -0.01392,0.002 -0.02088,0.003 -0.0075,0.001 -0.01503,0.002 -0.02257,0.003 -0.009,0.001 -0.01799,0.002 -0.02697,0.003 -0.01035,0.001 -0.02069,0.002 -0.03106,0.003 -0.01326,0.001 -0.02652,0.002 -0.03979,0.003 -0.01236,0.001 -0.02474,0.002 -0.03707,0.003 0,0 -0.0021,-2.7e-4 -0.0021,-2.7e-4 z"
             style="paint-order:stroke fill markers"
             id="path77"
             inkscape:connector-curvature="0" />
          <path
             d="m -44.632,153.04 c 0.0088,1e-5 0.0177,1e-5 0.02653,1e-5 l 0.02666,0 0.04147,0 c 0.01754,-1.5e-4 0.0351,2.6e-4 0.05264,-2.4e-4 0.01802,-2.7e-4 0.03598,-0.001 0.05391,-0.003 0.01516,-0.002 0.03037,-0.002 0.04559,-0.003 0.01177,-1.4e-4 0.0235,-0.001 0.03526,-0.002 0.0131,-0.002 0.02601,-0.005 0.03906,-0.007 0.01167,-0.002 0.02334,-0.004 0.03506,-0.005 0.0075,-8e-4 0.01513,-0.001 0.0227,-0.001 0.01167,1e-5 0.02318,-0.002 0.0347,-0.004 0.01035,-0.002 0.02072,-0.003 0.03116,-0.004 0.0062,-2.6e-4 0.0123,-0.001 0.01849,-0.002 0.0052,-5.3e-4 0.0104,-5.3e-4 0.01558,-5.3e-4 0.007,-2e-5 0.01405,0 0.02106,0 0,0 -0.0021,2.7e-4 -0.0021,2.7e-4 -0.0057,-1e-5 -0.01135,-2e-5 -0.01704,0 -0.0052,4e-5 -0.0104,9e-5 -0.01558,5.3e-4 -0.0062,5.3e-4 -0.0123,0.002 -0.01849,0.002 -0.01045,8e-4 -0.02085,0.002 -0.03118,0.004 -0.01151,0.002 -0.02302,0.004 -0.03468,0.004 -0.0076,8e-5 -0.01519,2.6e-4 -0.02273,0.001 -0.01175,0.001 -0.02342,0.003 -0.03507,0.005 -0.01307,0.002 -0.02598,0.005 -0.03906,0.007 -0.01175,5.3e-4 -0.02349,0.002 -0.03526,0.002 -0.01524,5.3e-4 -0.03045,0.001 -0.04561,0.003 -0.01794,0.002 -0.0359,0.003 -0.05393,0.003 -0.01886,5.3e-4 -0.03771,2.1e-4 -0.05657,2.5e-4 l -0.04149,0 -0.02667,0 -0.02654,0 0.0021,-2.6e-4 z"
             style="paint-order:stroke fill markers"
             id="path79"
             inkscape:connector-curvature="0" />
        </g>
      </g>
      <g
         id="g81"
         style="fill:#bcd35f;stroke-linejoin:bevel">
        <path
           d="m -44.669,153.05 c 0.01736,-0.001 0.03475,-0.001 0.05214,-0.002 0.02183,-5.3e-4 0.04365,-7e-5 0.06546,-5.3e-4 0.01074,-2.3e-4 0.02143,-8e-4 0.03212,-0.002 0,0 0.0021,2.7e-4 0.0021,2.7e-4 -0.01069,7.9e-4 -0.02141,0.002 -0.03215,0.002 -0.02183,5.3e-4 -0.04365,1.8e-4 -0.06548,5.3e-4 -0.01871,2.7e-4 -0.03741,7.9e-4 -0.0561,0.002 0,0 0.0021,-2.7e-4 0.0021,-2.7e-4 z"
           style="stroke:#ff2a2a;stroke-width:0.1;paint-order:stroke fill markers"
           id="path83"
           inkscape:connector-curvature="0" />
        <path
           transform="scale(0.26458,0.26458)"
           d="m -169.7,577.45 c 0.17667,-0.53002 11.032,-3.1834 27.459,-6.7121 45.247,-9.7194 74.266,-17.263 104.38,-27.135 78.932,-25.876 149.09,-64.633 220.9,-122.03 36.825,-29.436 78.763,-68.43 120.92,-112.43 11.193,-11.683 19.717,-20.023 20.598,-20.153 0.82627,-0.12187 1.607,-0.53979 1.7349,-0.9287 0.15239,-0.46321 -6.0144,-0.62429 -17.879,-0.46701 -12.238,0.16223 -18.028,0.004 -17.855,-0.48933 0.38329,-1.0887 93.463,-75.597 102.99,-82.443 4.031,-2.896 4.1243,-2.8875 8.4184,0.76265 0.85341,0.72544 2.5927,2.1145 3.8652,3.0867 1.2724,0.97227 2.8811,2.3246 3.5749,3.0052 0.69373,0.6806 1.5455,1.2374 1.8928,1.2374 0.3473,0 0.81461,0.4773 1.0385,1.0607 0.22385,0.58336 0.73519,1.0607 1.1363,1.0607 0.40111,0 1.2969,0.55685 1.9906,1.2374 0.69373,0.68059 2.3122,2.0329 3.5966,3.0052 1.2844,0.97227 2.7624,2.1655 3.2844,2.6516 0.52199,0.48614 1.1416,0.88389 1.377,0.88389 0.23535,0 1.361,0.95459 2.5016,2.1213 1.1405,1.1667 2.3685,2.1213 2.729,2.1213 0.3604,0 0.83844,0.47729 1.0623,1.0607 0.22385,0.58336 0.73519,1.0607 1.1363,1.0607 0.40111,0 1.3334,0.55684 2.0718,1.2374 2.5007,2.3049 4.6577,4.1075 7.8498,6.5602 1.7501,1.3447 3.288,2.6859 3.4177,2.9805 0.12964,0.29457 0.68648,0.53559 1.2374,0.53559 0.55096,0 1.0017,0.26256 1.0017,0.58346 0,0.32091 1.7432,1.8324 3.8738,3.3588 2.1306,1.5264 3.8807,3.0139 3.8891,3.3056 0.008,0.29168 0.45851,0.53033 1.0003,0.53033 0.54176,0 1.1682,0.4773 1.392,1.0607 0.22385,0.58336 0.74592,1.0607 1.1601,1.0607 0.41418,0 1.6863,0.9546 2.8268,2.1213 1.1405,1.1667 2.2435,2.1213 2.451,2.1213 0.2075,0 0.95924,0.55685 1.6704,1.2374 2.7094,2.5929 5.1088,4.4194 5.8056,4.4194 0.39816,0 0.90708,0.47729 1.1309,1.0607 0.22387,0.58336 0.69117,1.0607 1.0385,1.0607 0.34733,0 1.2264,0.55684 1.9535,1.2374 3.66,3.4258 5.6616,5.1265 6.0337,5.1265 0.41729,0 3.2086,2.2361 5.3999,4.3259 0.65974,0.62917 3.0712,2.5365 5.3589,4.2385 2.2877,1.702 4.4138,3.4942 4.7248,3.9826 0.311,0.48843 1.027,0.88806 1.591,0.88806 0.564,0 1.0255,0.27718 1.0255,0.61596 0,0.33877 1.1115,1.3729 2.47,2.2981 1.3585,0.92518 2.4722,1.9208 2.4749,2.2125 0.003,0.29168 -7.8706,0.5352 -17.496,0.54116 -10.078,0.006 -17.951,0.30157 -18.562,0.69628 -0.59252,0.38292 -0.69991,0.69023 -0.2433,0.69628 1.1375,0.0151 -0.43586,3.2952 -1.9409,4.0463 -0.61794,0.30839 -2.8069,2.4699 -4.8643,4.8033 -5.1178,5.8043 -41.332,42.134 -47.225,47.376 -2.6234,2.3335 -6.2823,5.7541 -8.1308,7.6014 -1.8485,1.8473 -3.5986,3.3606 -3.8891,3.3629 -0.29044,0.002 -2.749,2.0706 -5.4634,4.5962 -2.7144,2.5256 -5.1009,4.6015 -5.3033,4.6132 -0.20239,0.0116 -1.7999,1.2942 -3.55,2.8501 -1.7501,1.5559 -5.0912,4.3268 -7.4246,6.1575 -2.3334,1.8307 -5.107,4.2074 -6.1634,5.2816 -1.0564,1.0742 -2.2032,1.9531 -2.5484,1.9531 -0.3452,0 -1.486,0.7955 -2.5351,1.7678 -1.0491,0.9723 -2.0465,1.7678 -2.2165,1.7678 -0.35988,0 -2.792,1.9317 -4.6741,3.7123 -0.71937,0.68059 -1.4805,1.2374 -1.6914,1.2374 -0.44159,0 -1.638,0.94349 -4.7982,3.7838 -1.2337,1.1088 -3.1181,2.4693 -4.1876,3.0234 -1.0695,0.55406 -1.9446,1.3174 -1.9446,1.6963 0,0.37893 -0.47729,0.68895 -1.0607,0.68895 -0.58336,0 -1.0607,0.3182 -1.0607,0.70711 0,0.38891 -0.40638,0.70711 -0.90307,0.70711 -0.49669,0 -1.9482,0.95459 -3.2256,2.1213 -1.2774,1.1667 -2.4756,2.1213 -2.6627,2.1213 -0.39936,0 -8.2465,5.6994 -8.765,6.3661 -0.19445,0.25001 -0.83085,0.67516 -1.4142,0.94477 -0.58336,0.26962 -2.3753,1.3601 -3.9822,2.4233 -1.6069,1.0632 -4.7888,3.1686 -7.0711,4.6787 -2.2823,1.5101 -4.3087,2.9449 -4.5031,3.1884 -0.19445,0.24351 -2.4218,1.6912 -4.9498,3.217 -2.5279,1.5258 -4.7553,2.978 -4.9497,3.2271 -0.19446,0.24911 -0.83085,0.67187 -1.4142,0.93946 -0.58336,0.2676 -1.9077,1.0399 -2.943,1.7162 -1.0353,0.67631 -3.7189,2.2995 -5.9634,3.6071 -2.2445,1.3076 -4.5227,2.819 -5.0624,3.3588 -0.53975,0.53974 -1.3263,0.98135 -1.748,0.98135 -0.42164,0 -1.7512,0.72672 -2.9547,1.6149 -1.2034,0.88822 -2.9836,2.0145 -3.9558,2.5029 -0.97228,0.48836 -2.4107,1.2731 -3.1964,1.7438 -2.5088,1.503 -12.54,7.2753 -17.902,10.302 -2.8538,1.6106 -5.4524,2.9284 -5.7747,2.9284 -0.3223,0 -0.69213,0.23865 -0.82177,0.53033 -0.24216,0.54486 -4.3251,2.732 -16.261,8.7104 -3.7579,1.8823 -7.0414,3.7604 -7.2967,4.1734 -0.25528,0.41306 -0.7243,0.59023 -1.0423,0.39371 -0.31798,-0.19651 -0.97134,0.1165 -1.4519,0.69558 -0.48059,0.57907 -1.1511,1.0529 -1.4899,1.0529 -0.59802,0 -4.9146,1.988 -21.838,10.058 -4.4724,2.1326 -9.7227,4.5946 -11.667,5.471 -1.9446,0.87639 -5.1265,2.3246 -7.0711,3.2183 -5.9922,2.7538 -10.222,4.5875 -10.581,4.5875 -0.4423,0 -9.5398,4.0467 -11.153,4.9609 -0.67532,0.38277 -1.5982,0.69594 -2.0508,0.69594 -0.45265,0 -2.4457,0.74768 -4.429,1.6615 -1.9833,0.91383 -5.5152,2.3736 -7.8486,3.2438 -2.3334,0.8702 -4.879,1.8452 -5.6568,2.1664 -5.2169,2.1547 -12.849,5.0764 -17.662,6.7612 -3.1028,1.0861 -6.4439,2.3935 -7.4246,2.9054 -0.9807,0.51184 -2.2604,0.93166 -2.8438,0.93294 -0.58336,10e-4 -2.9698,0.76154 -5.3033,1.6895 -5.0579,2.0113 -33.005,10.975 -46.315,14.855 -3.3057,0.96363 -8.2118,2.4098 -10.902,3.2136 -2.6906,0.80385 -5.3472,1.4615 -5.9035,1.4615 -0.5563,0 -2.0142,0.42597 -3.2397,0.94661 -2.3786,1.0105 -8.4061,2.5986 -18.138,4.7789 -3.3057,0.74059 -7.4423,1.806 -9.1924,2.3675 -3.0353,0.97391 -32.351,7.2638 -48.083,10.317 -38.413,7.4542 -81.867,13.31 -122.93,16.567 -16.399,1.3006 -15.135,1.2827 -14.777,0.20893 z"
           style="stroke:#bcd35f;stroke-width:2.53609991;paint-order:stroke fill markers"
           id="path85"
           inkscape:connector-curvature="0" />
        <path
           transform="scale(0.26458,0.26458)"
           d="m 151.43,445.5 c 0.11867,-0.12425 0.25005,-0.19163 0.29195,-0.14973 0.0419,0.0419 -0.0552,0.14356 -0.21577,0.22591 -0.27911,0.14314 -0.28246,0.13979 -0.0762,-0.0762 z"
           style="stroke:#ff2a2a;stroke-width:0.047244;paint-order:stroke fill markers"
           id="path87"
           inkscape:connector-curvature="0" />
        <path
           transform="scale(0.26458,0.26458)"
           d="m -179.72,579.06 c -0.51781,-0.0297 -0.73596,-0.0618 -0.75224,-0.11066 -0.0435,-0.13048 1.9981,-0.75876 4.3505,-1.3388 2.0039,-0.49415 5.7031,-1.3389 5.7328,-1.3092 0.009,0.009 -0.0394,0.0688 -0.10802,0.13232 -0.10015,0.0927 -0.17421,0.12715 -0.37481,0.17431 -0.1375,0.0323 -0.23366,0.0644 -0.21368,0.0712 0.02,0.007 0.11782,-0.009 0.21742,-0.0348 0.0996,-0.026 0.18562,-0.0428 0.19114,-0.0372 0.006,0.006 -0.0472,0.10931 -0.11714,0.23065 -0.38098,0.66079 -0.44455,1.3238 -0.17344,1.8089 l 0.074,0.13247 -0.1298,0.0158 c -0.0714,0.009 -0.28448,0.0236 -0.47354,0.0331 -0.18906,0.01 -0.72344,0.0378 -1.1875,0.0629 -3.3046,0.17844 -5.8205,0.23893 -7.0358,0.16916 z"
           style="stroke:#bcd35f;stroke-width:0.079252;paint-order:stroke fill markers"
           id="path89"
           inkscape:connector-curvature="0" />
      </g>
      <path
         transform="scale(0.26458,0.26458)"
         d="m -179.68,579.47 c -0.74927,-0.0471 -1.1233,-0.12967 -1.2749,-0.28128 -0.14065,-0.14065 -0.10288,-0.34653 0.0896,-0.48814 0.72871,-0.53621 4.3052,-1.4804 11.822,-3.1209 0.67891,-0.14817 1.2878,-0.28129 1.3532,-0.29582 0.0814,-0.0181 0.11529,-0.0159 0.10763,0.007 -0.006,0.0184 -0.30167,0.12075 -0.65672,0.22733 -0.82144,0.24659 -1.3495,0.42773 -1.6452,0.56438 -0.16056,0.0742 -0.39824,0.14183 -0.76063,0.21647 -1.4097,0.29035 -5.1168,1.1589 -6.4763,1.5173 -1.3471,0.35516 -2.6274,0.73865 -3.0466,0.91254 -0.27606,0.11452 -0.46525,0.23395 -0.40243,0.25407 0.20267,0.0649 0.31317,0.0834 0.66777,0.11177 0.46152,0.037 2.7889,0.0348 3.8906,-0.004 1.6842,-0.0587 5.0491,-0.23407 5.1006,-0.26587 0.0155,-0.01 0.11027,0.0609 0.21063,0.15664 l 0.18247,0.17405 -0.0984,0.0147 c -0.0541,0.008 -0.37963,0.0296 -0.72338,0.0477 -0.34375,0.0182 -1.1523,0.061 -1.7969,0.0952 -2.8574,0.15157 -5.5825,0.21663 -6.5428,0.15621 z"
         style="fill:#ffcc00;stroke:#bcd35f;stroke-width:0.079252;stroke-linejoin:bevel;paint-order:stroke fill markers"
         id="path91"
         inkscape:connector-curvature="0" />
    </g>
  </g>
  <g
     transform="translate(-5.1884801,24.735159)"
     id="g93">
    <path
       transform="translate(-0.35308,14.473)"
       d="m 307.8,50.386 c 4.007,-4.2853 69.264,-63.283 69.843,-63.144 0.44434,0.10695 16.005,14.126 34.579,31.154 18.574,17.028 34.168,31.303 34.654,31.724 0.59031,0.51117 -22.377,0.7644 -69.33,0.7644 -38.617,0 -70.003,-0.22425 -69.746,-0.49838 z"
       clip-path="url(#clipPath4966)"
       id="path95"
       inkscape:connector-curvature="0"
       style="fill:#00ffff;fill-opacity:0.28235001" />
    <g
       clip-path="url(#clipPath4956)"
       id="g97">
      <path
         d="m 187.88,215.7 0,-15.221 3.1314,-2.0985 c 14.166,-9.4934 29.151,-20.937 44.204,-33.757 3.6528,-3.1109 6.7093,-5.6562 6.7922,-5.6562 0.0829,0 0.14949,11.006 0.14757,24.457 l -0.002,24.457 -2.9676,1.4178 c -14.271,6.8178 -8.3274,5.2876 -43.837,18.783 l -7.4673,2.8379 z"
         id="path99"
         inkscape:connector-curvature="0"
         style="opacity:0.75;fill:#d4ff2a;fill-opacity:0.15685999" />
      <path
         d="m 20.512,265.65 c 0.16292,-0.20003 4.2225,-1.2127 17.779,-4.4346 32.507,-7.7259 49.511,-12.66 70.557,-20.475 25.89,-9.6135 51.883,-22.587 75.204,-37.535 1.9539,-1.2524 3.6146,-2.2771 3.6904,-2.2771 0.0758,0 0.13786,6.7493 0.13786,14.998 l 0,14.998 -2.3278,0.83834 c -39.994,14.403 -83.453,24.798 -126.95,30.365 -13.552,1.7343 -38.518,4.0426 -38.095,3.522 z"
         id="path101"
         inkscape:connector-curvature="0"
         style="opacity:0.75;fill:#00ff00;fill-opacity:0.15685999" />
      <path
         d="m 242.16,183.06 0.005,-24.823 4.3862,-3.8574 c 21.007,-18.475 53.746,-53.066 80.197,-84.734 l 9.9878,-11.958 29.812,0.06912 c 16.397,0.0381 37.049,0.21173 45.895,0.38574 l 16.083,0.31664 -6.5257,7.972 c -31.963,39.047 -68.743,72.798 -109.69,100.66 -21.203,14.426 -47.992,30.06 -68.68,40.081 l -1.4762,0.71506 0.005,-24.823 z"
         id="path103"
         inkscape:connector-curvature="0"
         style="fill:#00ffff;fill-opacity:0.21175998" />
    </g>
  </g>
  <g
     transform="translate(-5.1884801,24.735159)"
     id="g105"
     style="fill:none;stroke:#000000">
    <path
       d="m 242.16,162.23 0,104.78"
       id="path107"
       inkscape:connector-curvature="0"
       style="stroke-width:0.39721999;stroke-dasharray:1.58889848, 3.17779696" />
    <path
       d="m 187.88,200.48 0,66.592"
       id="path109"
       inkscape:connector-curvature="0"
       style="stroke-width:0.3506;stroke-dasharray:1.40239051, 2.80478101" />
  </g>
  <g
     transform="translate(-5.1884801,24.735159)"
     id="g111"
     style="stroke:#000000">
    <ellipse
       cx="125.09"
       cy="91.924004"
       rx="107.19"
       ry="57.604"
       id="ellipse113"
       style="opacity:0.75;fill:#d4ff22;fill-opacity:0.11764999;stroke-width:0.46290001;stroke-dasharray:0.92580458, 1.85160916;stroke-opacity:0.99219001" />
    <path
       d="m 242.16,158.24 c 1.7457,-54.419 -5.0015,-76.797 -21.505,-92.229"
       id="path115"
       inkscape:connector-curvature="0"
       style="fill:none;stroke-width:0.33193001;stroke-dasharray:1.32772875, 2.6554575" />
    <path
       d="m 187.88,200.48 c -8.5595,-46.095 -63.414,-51.1 -81.112,-51.282"
       id="path117"
       inkscape:connector-curvature="0"
       style="fill:none;stroke-width:0.32224;stroke-dasharray:1.28896549, 2.57793099" />
  </g>
  <text
     xml:space="preserve"
     style="font-style:normal;font-weight:normal;font-size:5.64444447px;line-height:125%;font-family:sans-serif;text-align:start;letter-spacing:0px;word-spacing:0px;text-anchor:start;fill:#000000;fill-opacity:1;stroke:none;stroke-width:1px;stroke-linecap:butt;stroke-linejoin:miter;stroke-opacity:1"
     x="43.290848"
     y="84.751968"
     id="text5638"
     sodipodi:linespacing="125%"><tspan
       sodipodi:role="line"
       id="tspan5640"
       x="43.290848"
       y="84.751968"
       style="font-style:normal;font-variant:normal;font-weight:normal;font-stretch:normal;font-size:7.76111126px;font-family:'Open Sans';-inkscape-font-specification:'Open Sans';text-align:start;text-anchor:start">1. Programmierung des Prototyp-Backends</tspan><tspan
       sodipodi:role="line"
       x="43.290848"
       y="94.453354"
       style="font-style:normal;font-variant:normal;font-weight:normal;font-stretch:normal;font-size:7.76111126px;font-family:'Open Sans';-inkscape-font-specification:'Open Sans';text-align:start;text-anchor:start"
       id="tspan5642" /><tspan
       sodipodi:role="line"
       x="43.290848"
       y="104.15475"
       style="font-style:normal;font-variant:normal;font-weight:normal;font-stretch:normal;font-size:7.76111126px;font-family:'Open Sans';-inkscape-font-specification:'Open Sans';text-align:start;text-anchor:start"
       id="tspan5644">2. Entwicklung der Netzwerk-Konfiguration</tspan><tspan
       sodipodi:role="line"
       x="43.290848"
       y="113.85613"
       style="font-style:normal;font-variant:normal;font-weight:normal;font-stretch:normal;font-size:7.76111126px;font-family:'Open Sans';-inkscape-font-specification:'Open Sans';text-align:start;text-anchor:start"
       id="tspan5646" /><tspan
       sodipodi:role="line"
       x="43.290848"
       y="123.55753"
       style="font-style:normal;font-variant:normal;font-weight:normal;font-stretch:normal;font-size:7.76111126px;font-family:'Open Sans';-inkscape-font-specification:'Open Sans';text-align:start;text-anchor:start"
       id="tspan5648">3. User-Workshop zur Konzeptionierung des</tspan><tspan
       sodipodi:role="line"
       x="43.290848"
       y="133.25891"
       style="font-style:normal;font-variant:normal;font-weight:normal;font-stretch:normal;font-size:7.76111126px;font-family:'Open Sans';-inkscape-font-specification:'Open Sans';text-align:start;text-anchor:start"
       id="tspan5654">    Prototyp-Frontends</tspan><tspan
       sodipodi:role="line"
       x="43.290848"
       y="142.9603"
       style="font-style:normal;font-variant:normal;font-weight:normal;font-stretch:normal;font-size:7.76111126px;font-family:'Open Sans';-inkscape-font-specification:'Open Sans';text-align:start;text-anchor:start"
       id="tspan5650" /><tspan
       sodipodi:role="line"
       x="43.290848"
       y="152.6617"
       style="font-style:normal;font-variant:normal;font-weight:normal;font-stretch:normal;font-size:7.76111126px;font-family:'Open Sans';-inkscape-font-specification:'Open Sans';text-align:start;text-anchor:start"
       id="tspan5652">4. Entwicklung des Prototyp-Frontends</tspan></text>
  <text
     xml:space="preserve"
     style="font-style:normal;font-weight:normal;font-size:5.64444447px;line-height:125%;font-family:sans-serif;text-align:start;letter-spacing:0px;word-spacing:0px;text-anchor:start;fill:#000000;fill-opacity:1;stroke:none;stroke-width:1px;stroke-linecap:butt;stroke-linejoin:miter;stroke-opacity:1"
     x="13.525894"
     y="277.14227"
     id="text5656"
     sodipodi:linespacing="125%"><tspan
       sodipodi:role="line"
       id="tspan5658"
       x="13.525894"
       y="277.14227"
       style="font-style:normal;font-variant:normal;font-weight:normal;font-stretch:normal;font-size:7.76111126px;font-family:'Open Sans';-inkscape-font-specification:'Open Sans';text-align:start;text-anchor:start;opacity:0">Phase 1:</tspan><tspan
       sodipodi:role="line"
       x="13.525894"
       y="286.84366"
       style="font-style:normal;font-variant:normal;font-weight:normal;font-stretch:normal;font-size:7.76111126px;font-family:'Open Sans';-inkscape-font-specification:'Open Sans';text-align:start;text-anchor:start;opacity:0"
       id="tspan5660">Entwicklung der Konzeptidee</tspan></text>
  <text
     xml:space="preserve"
     style="font-style:normal;font-weight:normal;font-size:5.64444447px;line-height:125%;font-family:sans-serif;text-align:start;letter-spacing:0px;word-spacing:0px;text-anchor:start;fill:#000000;fill-opacity:1;stroke:none;stroke-width:1px;stroke-linecap:butt;stroke-linejoin:miter;stroke-opacity:1"
     x="120.19238"
     y="248.33189"
     id="text5656-3"
     sodipodi:linespacing="125%"><tspan
       sodipodi:role="line"
       id="tspan5658-6"
       x="120.19238"
       y="248.33189"
       style="font-style:normal;font-variant:normal;font-weight:normal;font-stretch:normal;font-size:7.76111126px;font-family:'Open Sans';-inkscape-font-specification:'Open Sans';text-align:start;text-anchor:start;opacity:0">Phase 2:</tspan><tspan
       sodipodi:role="line"
       x="120.19238"
       y="258.03326"
       style="font-style:normal;font-variant:normal;font-weight:normal;font-stretch:normal;font-size:7.76111126px;font-family:'Open Sans';-inkscape-font-specification:'Open Sans';text-align:start;text-anchor:start;opacity:0"
       id="tspan5660-7">bersetzung der</tspan><tspan
       sodipodi:role="line"
       x="120.19238"
       y="267.73465"
       style="font-style:normal;font-variant:normal;font-weight:normal;font-stretch:normal;font-size:7.76111126px;font-family:'Open Sans';-inkscape-font-specification:'Open Sans';text-align:start;text-anchor:start;opacity:0"
       id="tspan5683">Konzeptidee</tspan></text>
  <text
     xml:space="preserve"
     style="font-style:normal;font-weight:normal;font-size:5.64444447px;line-height:125%;font-family:sans-serif;text-align:start;letter-spacing:0px;word-spacing:0px;text-anchor:start;fill:#000000;fill-opacity:1;stroke:none;stroke-width:1px;stroke-linecap:butt;stroke-linejoin:miter;stroke-opacity:1"
     x="189.47243"
     y="220.76221"
     id="text5656-3-5"
     sodipodi:linespacing="125%"><tspan
       sodipodi:role="line"
       id="tspan5658-6-3"
       x="189.47243"
       y="220.76221"
       style="font-style:normal;font-variant:normal;font-weight:normal;font-stretch:normal;font-size:7.76111126px;font-family:'Open Sans';-inkscape-font-specification:'Open Sans';text-align:start;text-anchor:start;opacity:0">Phase 3:</tspan><tspan
       sodipodi:role="line"
       x="189.47243"
       y="230.46359"
       style="font-style:normal;font-variant:normal;font-weight:normal;font-stretch:normal;font-size:7.76111126px;font-family:'Open Sans';-inkscape-font-specification:'Open Sans';text-align:start;text-anchor:start;opacity:0"
       id="tspan5683-6">Prototyp-</tspan><tspan
       sodipodi:role="line"
       x="189.47243"
       y="240.16498"
       style="font-style:normal;font-variant:normal;font-weight:normal;font-stretch:normal;font-size:7.76111126px;font-family:'Open Sans';-inkscape-font-specification:'Open Sans';text-align:start;text-anchor:start;opacity:0"
       id="tspan5711">Entwicklung</tspan></text>
  <text
     xml:space="preserve"
     style="font-style:normal;font-weight:normal;font-size:5.64444447px;line-height:125%;font-family:sans-serif;text-align:start;letter-spacing:0px;word-spacing:0px;text-anchor:start;fill:#000000;fill-opacity:1;stroke:none;stroke-width:1px;stroke-linecap:butt;stroke-linejoin:miter;stroke-opacity:1"
     x="241.88753"
     y="182.86754"
     id="text5656-3-5-2"
     sodipodi:linespacing="125%"><tspan
       sodipodi:role="line"
       x="241.88753"
       y="182.86754"
       style="font-style:normal;font-variant:normal;font-weight:normal;font-stretch:normal;font-size:7.76111126px;font-family:'Open Sans';-inkscape-font-specification:'Open Sans';text-align:start;text-anchor:start;opacity:0"
       id="tspan5683-6-1">Phase 4:</tspan><tspan
       sodipodi:role="line"
       x="241.88753"
       y="192.56892"
       style="font-style:normal;font-variant:normal;font-weight:normal;font-stretch:normal;font-size:7.76111126px;font-family:'Open Sans';-inkscape-font-specification:'Open Sans';text-align:start;text-anchor:start;opacity:0"
       id="tspan5711-2">Integration externer</tspan><tspan
       sodipodi:role="line"
       x="241.88753"
       y="202.27031"
       style="font-style:normal;font-variant:normal;font-weight:normal;font-stretch:normal;font-size:7.76111126px;font-family:'Open Sans';-inkscape-font-specification:'Open Sans';text-align:start;text-anchor:start;opacity:0"
       id="tspan5743">Datenbanken</tspan></text>
  <text
     xml:space="preserve"
     style="font-style:normal;font-weight:normal;font-size:5.64444447px;line-height:125%;font-family:sans-serif;text-align:start;letter-spacing:0px;word-spacing:0px;text-anchor:start;fill:#000000;fill-opacity:1;stroke:none;stroke-width:1px;stroke-linecap:butt;stroke-linejoin:miter;stroke-opacity:1"
     x="299.87448"
     y="118.97906"
     id="text5656-3-5-2-7"
     sodipodi:linespacing="125%"><tspan
       sodipodi:role="line"
       x="299.87448"
       y="118.97906"
       style="font-style:normal;font-variant:normal;font-weight:normal;font-stretch:normal;font-size:7.76111126px;font-family:'Open Sans';-inkscape-font-specification:'Open Sans';text-align:start;text-anchor:start;opacity:0"
       id="tspan5683-6-1-0">Phase 5:</tspan><tspan
       sodipodi:role="line"
       x="299.87448"
       y="128.68045"
       style="font-style:normal;font-variant:normal;font-weight:normal;font-stretch:normal;font-size:7.76111126px;font-family:'Open Sans';-inkscape-font-specification:'Open Sans';text-align:start;text-anchor:start;opacity:0"
       id="tspan5743-3">Entwicklung der</tspan><tspan
       sodipodi:role="line"
       x="299.87448"
       y="138.38184"
       style="font-style:normal;font-variant:normal;font-weight:normal;font-stretch:normal;font-size:7.76111126px;font-family:'Open Sans';-inkscape-font-specification:'Open Sans';text-align:start;text-anchor:start;opacity:0"
       id="tspan5771">Viridian-Kryptowhrung</tspan></text>
  <text
     xml:space="preserve"
     style="font-style:normal;font-weight:normal;font-size:5.64444447px;line-height:125%;font-family:sans-serif;text-align:start;letter-spacing:0px;word-spacing:0px;text-anchor:start;fill:#000000;fill-opacity:1;stroke:none;stroke-width:1px;stroke-linecap:butt;stroke-linejoin:miter;stroke-opacity:1"
     x="334.73083"
     y="67.092293"
     id="text5656-3-5-2-7-6"
     sodipodi:linespacing="125%"><tspan
       sodipodi:role="line"
       x="334.73083"
       y="67.092293"
       style="font-style:normal;font-variant:normal;font-weight:normal;font-stretch:normal;font-size:7.76111126px;font-family:'Open Sans';-inkscape-font-specification:'Open Sans';text-align:start;text-anchor:start;opacity:0"
       id="tspan5683-6-1-0-0">Phase 6:</tspan><tspan
       sodipodi:role="line"
       x="334.73083"
       y="76.793678"
       style="font-style:normal;font-variant:normal;font-weight:normal;font-stretch:normal;font-size:7.76111126px;font-family:'Open Sans';-inkscape-font-specification:'Open Sans';text-align:start;text-anchor:start;opacity:0"
       id="tspan5743-3-6">Einfhrung der</tspan><tspan
       sodipodi:role="line"
       x="334.73083"
       y="86.495071"
       style="font-style:normal;font-variant:normal;font-weight:normal;font-stretch:normal;font-size:7.76111126px;font-family:'Open Sans';-inkscape-font-specification:'Open Sans';text-align:start;text-anchor:start;opacity:0"
       id="tspan5771-2">Viridian-Kryptowhrung</tspan></text>
  <text
     xml:space="preserve"
     style="font-style:normal;font-weight:normal;font-size:5.64444447px;line-height:125%;font-family:sans-serif;text-align:start;letter-spacing:0px;word-spacing:0px;text-anchor:start;fill:#000000;fill-opacity:1;stroke:none;stroke-width:1px;stroke-linecap:butt;stroke-linejoin:miter;stroke-opacity:1"
     x="370.99146"
     y="301.66144"
     id="text5656-3-6"
     sodipodi:linespacing="125%"><tspan
       sodipodi:role="line"
       x="370.99146"
       y="301.66144"
       style="font-style:normal;font-variant:normal;font-weight:bold;font-stretch:normal;font-size:7.76111126px;font-family:'Open Sans';-inkscape-font-specification:'Open Sans';text-align:start;text-anchor:start;opacity:0"
       id="tspan5683-7">Entwicklungszeit</tspan></text>
  <text
     xml:space="preserve"
     style="font-style:normal;font-weight:normal;font-size:5.64444447px;line-height:125%;font-family:sans-serif;text-align:start;letter-spacing:0px;word-spacing:0px;text-anchor:start;fill:#000000;fill-opacity:1;stroke:none;stroke-width:1px;stroke-linecap:butt;stroke-linejoin:miter;stroke-opacity:1"
     x="-115.89989"
     y="5.8966255"
     id="text5656-3-6-9"
     sodipodi:linespacing="125%"
     transform="matrix(0,-1.0000001,0.99999991,0,0,0)"><tspan
       sodipodi:role="line"
       x="-115.89989"
       y="5.8966255"
       style="font-style:normal;font-variant:normal;font-weight:bold;font-stretch:normal;font-size:7.76111126px;font-family:'Open Sans';-inkscape-font-specification:'Open Sans';text-align:start;text-anchor:start;opacity:0"
       id="tspan5683-7-2">Implementierung &amp; Impact</tspan></text>
  <text
     xml:space="preserve"
     style="font-style:normal;font-weight:normal;font-size:5.64444447px;line-height:125%;font-family:sans-serif;text-align:start;letter-spacing:0px;word-spacing:0px;text-anchor:start;fill:#000000;fill-opacity:1;stroke:none;stroke-width:1px;stroke-linecap:butt;stroke-linejoin:miter;stroke-opacity:1"
     x="182.53932"
     y="300.65668"
     id="text5656-3-6-0"
     sodipodi:linespacing="125%"><tspan
       sodipodi:role="line"
       x="182.53932"
       y="300.65668"
       style="font-style:italic;font-variant:normal;font-weight:normal;font-stretch:normal;font-size:7.76111126px;font-family:'Open Sans';-inkscape-font-specification:'Open Sans';text-align:start;text-anchor:start;opacity:0"
       id="tspan5683-7-23">Frderzeitraum</tspan></text>
</svg>
